<svg version="1.1" id="Layer_1" xmlns="http://www.w3.org/2000/svg" xmlns:xlink="http://www.w3.org/1999/xlink" x="0px" y="0px"
	 width="100%" viewBox="0 0 102 102" enable-background="new 0 0 102 102" xml:space="preserve">
<path fill="#0154A5" opacity="1.000000" stroke="none" 
	d="
M103.000000,66.000000 
	C103.000000,78.306564 103.000000,90.613136 103.000000,102.959854 
	C69.100601,102.959854 35.201138,102.959854 1.000000,102.959854 
	C1.000000,82.313416 1.000000,61.625366 1.365247,40.447060 
	C4.985458,38.196877 8.240422,36.436943 12.093861,34.353424 
	C10.877557,33.035412 9.938583,32.017921 9.023724,30.626091 
	C11.074720,24.808401 13.653471,23.698524 20.990330,25.371859 
	C19.906160,27.528128 18.962626,29.363796 17.920177,31.222599 
	C17.821266,31.245733 17.898407,31.554510 17.671247,32.028645 
	C17.363091,32.843784 17.282093,33.184792 16.912563,33.720238 
	C16.483183,34.347771 16.342333,34.780861 15.969429,35.250404 
	C15.644468,35.899651 15.551561,36.512436 15.282093,37.254440 
	C15.105532,37.383652 14.909610,37.774925 14.962881,37.771324 
	C15.016151,37.767719 15.024748,37.604664 14.862099,37.961464 
	C14.363830,39.289795 14.028211,40.261326 13.294361,41.235962 
	C11.922229,42.831985 10.948325,44.424911 9.647656,46.148659 
	C8.372479,48.798965 6.580811,51.358837 6.699035,53.827232 
	C6.832812,56.620361 5.426101,60.732571 10.005363,62.336689 
	C10.355710,63.778240 10.686584,64.873795 10.826887,66.256989 
	C9.149992,67.836151 7.663664,69.127686 6.177336,70.419212 
	C6.332109,70.830544 6.486883,71.241867 6.641656,71.653198 
	C9.994962,71.653198 13.348267,71.653198 16.895473,71.666168 
	C17.309172,71.854454 17.414045,72.082581 17.325794,72.743927 
	C17.979527,74.004753 18.711458,74.885170 19.622204,75.899567 
	C19.992287,76.425232 20.183556,76.816933 20.358059,77.546005 
	C20.797764,78.309669 21.254230,78.735970 21.948284,79.307693 
	C22.360527,79.958328 22.535181,80.463531 22.403679,81.136818 
	C22.213457,83.558182 21.618319,86.199402 22.592245,87.984596 
	C24.667683,91.788826 31.192482,92.213776 36.487640,89.391327 
	C36.638172,89.355911 36.754444,89.642509 36.775982,90.017303 
	C36.378063,91.995262 35.958611,93.598427 35.462864,95.493164 
	C38.679783,95.308159 41.438469,95.366699 44.107067,94.904770 
	C45.449062,94.672462 46.627369,93.494537 47.837929,92.432968 
	C47.734001,91.921097 47.671852,91.720505 47.659157,91.379463 
	C47.708611,91.239014 47.811974,90.959740 48.136490,90.766281 
	C48.205647,89.004219 47.950283,87.435623 47.640610,85.763031 
	C47.586296,85.659042 47.561958,85.425667 47.549088,85.055885 
	C45.713345,84.167831 43.890476,83.649559 41.749268,83.101318 
	C40.654621,83.306076 39.878323,83.540794 38.763748,83.721046 
	C34.252796,80.840752 30.080116,78.014915 25.775497,74.954338 
	C25.384352,74.260475 25.125145,73.801353 25.023037,73.009949 
	C26.483269,71.768356 27.786404,70.859070 29.056376,69.965622 
	C29.023214,69.981461 29.050859,69.913361 29.054367,70.215897 
	C29.722628,70.976349 30.387384,71.434258 31.338005,72.012321 
	C32.416744,72.758987 33.209621,73.385506 34.121643,74.358337 
	C38.820572,78.428520 48.534351,76.689987 54.284126,71.268791 
	C56.053242,72.164177 57.512394,72.963623 59.297318,73.824097 
	C60.043175,74.021996 60.463253,74.158859 61.209717,74.489105 
	C63.662754,74.411072 65.789406,74.139664 68.247528,73.734718 
	C71.013763,71.709427 73.448532,69.817665 76.166779,68.095345 
	C77.296333,69.485184 78.142403,70.705589 78.918884,72.269913 
	C74.845390,76.072128 70.841484,79.530411 66.416901,82.959770 
	C64.760582,83.622169 63.524956,84.313492 62.024406,85.148392 
	C61.250553,85.607964 60.741623,85.923973 59.921715,86.351814 
	C59.803535,87.539238 59.996330,88.614830 60.210888,89.672935 
	C60.232651,89.655449 60.284153,89.677002 60.405724,90.041748 
	C61.485073,90.402496 62.442848,90.398499 63.501606,90.365829 
	C63.602585,90.337151 63.808094,90.294243 63.985992,90.404083 
	C64.507965,90.512329 64.688828,90.339760 65.160416,89.850098 
	C66.542992,89.490593 67.471642,89.277222 68.334541,89.019852 
	C68.268784,88.975845 68.319366,89.118721 68.424561,88.956772 
	C68.657242,88.508102 68.784729,88.221382 69.380966,87.907074 
	C70.338585,87.507874 70.827461,87.136269 71.546318,86.781944 
	C72.103943,86.724709 72.329926,86.531372 72.592850,86.321823 
	C73.010910,86.285973 73.290382,86.147514 73.957626,85.794067 
	C74.538239,85.355034 74.731064,85.130989 75.212975,84.912537 
	C75.692505,84.888458 75.882965,84.858780 76.398148,84.777176 
	C80.597382,79.598274 84.471878,74.471291 88.653893,69.173996 
	C89.223854,67.936462 89.486305,66.869232 89.704338,65.571136 
	C89.659920,65.340271 89.386246,64.957909 89.484322,64.598648 
	C89.664848,63.749737 89.747292,63.260086 90.022400,62.686188 
	C90.419136,62.308548 90.371185,62.064690 90.170853,61.576317 
	C90.398026,60.888496 90.525566,60.494713 90.943619,59.986557 
	C91.528740,59.579544 91.823349,59.286903 92.418694,59.089497 
	C93.813087,59.790123 94.906746,60.395515 96.025635,61.370667 
	C96.748932,65.800423 100.178024,65.404984 103.000000,66.000000 
z"/>
<path fill="#0254A6" opacity="1.000000" stroke="none" 
	d="
M21.130964,25.051258 
	C13.653471,23.698524 11.074720,24.808401 8.608326,30.625603 
	C6.784148,31.003515 5.399480,31.007582 4.011219,30.590881 
	C4.140294,28.556538 4.067256,26.892357 4.449115,25.340080 
	C5.207990,22.255217 3.861540,21.085142 1.000000,21.000000 
	C1.000000,14.369552 1.000000,7.739103 1.000000,1.000000 
	C21.020779,1.000000 41.041729,1.000000 61.531578,1.399809 
	C62.001549,2.865668 62.002632,3.931717 61.740017,5.169217 
	C60.984226,6.227111 60.492134,7.113554 59.794777,8.248272 
	C59.391499,9.322553 59.193478,10.148559 58.761845,11.049805 
	C58.528233,11.125045 58.044407,11.042243 57.918537,10.718626 
	C55.011471,10.395009 52.230270,10.395009 48.913429,10.395009 
	C49.961609,14.456429 51.175549,16.890944 54.991695,17.229176 
	C55.418648,17.639133 55.705391,17.827337 56.056549,18.201542 
	C56.120964,18.387545 56.250034,18.759464 56.254139,19.021774 
	C56.487446,19.539692 56.716652,19.795298 57.218250,20.280735 
	C58.660656,20.627056 59.830662,20.743549 61.401657,20.896685 
	C62.866657,21.057634 63.930668,21.181940 65.111855,21.598293 
	C66.149788,22.336248 67.070541,22.782152 68.030151,23.565765 
	C71.359886,26.621258 74.650772,29.339045 77.973137,32.376228 
	C78.334152,33.462898 78.663673,34.230171 79.069252,35.388298 
	C79.434288,38.186260 79.723274,40.593369 79.691116,42.880180 
	C78.086624,40.768715 77.049835,38.537720 75.430740,36.873104 
	C74.400703,35.814110 72.506355,35.595787 70.748077,34.878304 
	C69.997459,34.503834 69.498352,34.251556 68.873306,33.665802 
	C66.167023,32.554405 63.586685,31.776485 61.003990,30.749241 
	C61.001633,30.499918 60.998848,30.001255 60.978188,29.641449 
	C60.248764,26.075392 58.673008,24.077559 54.681366,25.066944 
	C53.243565,25.752645 52.122288,26.377237 50.604195,27.002417 
	C46.290409,26.364946 44.970570,28.963583 43.702454,32.087109 
	C39.139805,32.259007 36.950653,30.416889 37.470585,25.903387 
	C37.638809,24.443014 37.512081,22.948664 37.260666,21.303295 
	C36.802353,21.082735 36.603653,21.028734 36.779327,21.001902 
	C37.399204,20.980556 37.644699,20.932047 38.274002,20.926956 
	C40.478992,20.019379 42.300175,19.068384 44.349396,17.867844 
	C44.760986,16.743649 44.944530,15.869001 45.397663,14.891539 
	C45.785881,14.089921 46.188915,12.888812 45.979134,12.770037 
	C43.887196,11.585592 41.734123,10.484181 39.515831,9.556556 
	C38.018280,8.930323 36.388580,8.620102 34.817993,8.168524 
	C35.232502,9.822983 35.645180,11.477903 36.062653,13.131616 
	C36.184891,13.615819 36.320759,14.096581 36.646935,14.746965 
	C36.994385,14.998467 37.145279,15.081927 36.824821,15.257877 
	C36.084343,15.523921 35.815224,15.697474 35.478237,15.803219 
	C35.410374,15.735412 35.332150,15.906839 35.332150,15.906839 
	C35.332150,15.906839 35.495632,15.789373 35.082680,15.896709 
	C33.194328,16.823004 31.718922,17.641962 29.932190,18.482676 
	C28.508509,19.350864 27.396156,20.197298 26.005774,21.229517 
	C24.195484,22.627289 22.663223,23.839273 21.130964,25.051258 
z"/>
<path fill="#0154A5" opacity="1.000000" stroke="none" 
	d="
M60.000038,7.999996 
	C60.492134,7.113554 60.984226,6.227111 62.059685,5.307540 
	C67.157326,6.516135 65.577293,2.971635 66.000000,1.000000 
	C78.257896,1.000000 90.515800,1.000000 103.000000,1.000000 
	C103.000000,12.353227 103.000000,23.707954 102.627884,35.555061 
	C97.585716,37.028728 97.402985,39.869781 99.249405,43.458199 
	C100.749481,46.373524 101.767151,49.173458 98.967758,51.356941 
	C96.445236,49.737148 94.278160,48.345600 92.054733,46.998543 
	C91.998383,47.043037 91.859200,47.078396 91.908859,46.665833 
	C91.171776,43.794552 90.385033,41.335831 89.406036,38.636368 
	C89.071159,37.621197 88.928520,36.846771 89.126892,35.949467 
	C90.496567,34.010414 91.839890,32.299698 92.490990,30.356985 
	C94.035820,25.747541 89.459236,19.268866 84.990082,19.024399 
	C82.694420,18.898821 80.450699,17.964802 78.163200,17.494955 
	C76.826714,17.220446 75.450203,17.140820 73.871742,16.921879 
	C73.651787,16.870237 73.215759,16.751604 73.018234,16.470150 
	C70.557930,15.016269 68.295151,13.843841 66.018814,12.297733 
	C65.939758,7.652887 62.842564,8.021305 60.000038,7.999996 
z"/>
<path fill="#0153AE" opacity="1.000000" stroke="none" 
	d="
M92.111092,46.954052 
	C94.278160,48.345600 96.445236,49.737148 98.967758,51.356941 
	C101.767151,49.173458 100.749481,46.373524 99.249405,43.458199 
	C97.402985,39.869781 97.585716,37.028728 102.627884,36.023720 
	C103.000000,43.354252 103.000000,50.708500 102.667175,58.462280 
	C100.942963,58.087700 99.551582,57.313595 97.860435,56.372719 
	C97.182541,58.059475 96.591469,59.530193 96.000404,61.000912 
	C94.906746,60.395515 93.813087,59.790123 92.374268,58.630589 
	C92.056435,54.368984 92.083763,50.661518 92.111092,46.954052 
z"/>
<path fill="#0252AE" opacity="1.000000" stroke="none" 
	d="
M4.014813,31.011646 
	C5.399480,31.007582 6.784148,31.003515 8.584212,30.999941 
	C9.938583,32.017921 10.877557,33.035412 12.093861,34.353424 
	C8.240422,36.436943 4.985458,38.196877 1.365247,39.978401 
	C1.000000,38.285641 1.000000,36.571285 1.324643,34.361774 
	C2.437795,32.914963 3.226304,31.963305 4.014813,31.011646 
z"/>
<path fill="#03549D" opacity="1.000000" stroke="none" 
	d="
M96.025635,61.370667 
	C96.591469,59.530193 97.182541,58.059475 97.860435,56.372719 
	C99.551582,57.313595 100.942963,58.087700 102.667175,58.930901 
	C103.000000,61.041668 103.000000,63.083332 103.000000,65.562500 
	C100.178024,65.404984 96.748932,65.800423 96.025635,61.370667 
z"/>
<path fill="#00579F" opacity="1.000000" stroke="none" 
	d="
M4.011219,30.590881 
	C3.226304,31.963305 2.437795,32.914963 1.324643,33.933311 
	C1.000000,29.975456 1.000000,25.950911 1.000000,21.463184 
	C3.861540,21.085142 5.207990,22.255217 4.449115,25.340080 
	C4.067256,26.892357 4.140294,28.556538 4.011219,30.590881 
z"/>
<path fill="#03549D" opacity="1.000000" stroke="none" 
	d="
M65.600006,1.000000 
	C65.577293,2.971635 67.157326,6.516135 62.323380,5.136088 
	C62.002632,3.931717 62.001549,2.865668 62.000237,1.399809 
	C63.066669,1.000000 64.133339,1.000000 65.600006,1.000000 
z"/>
<path fill="#F6FEFF" opacity="1.000000" stroke="none" 
	d="
M75.883293,67.925911 
	C73.448532,69.817665 71.013763,71.709427 68.046471,73.600693 
	C67.513939,73.600197 67.041061,73.496964 66.906624,73.397339 
	C66.491493,73.424866 66.210793,73.552010 65.544418,73.734344 
	C64.121971,73.760529 63.085194,73.731529 61.815681,73.527039 
	C60.712479,73.488724 59.842010,73.625893 58.971546,73.763062 
	C57.512394,72.963623 56.053242,72.164177 54.160137,70.959763 
	C52.768368,70.367012 51.253284,69.699120 50.938076,70.064980 
	C47.401031,74.170403 42.779224,74.096756 37.743019,73.532394 
	C36.508106,73.287735 35.567989,73.252037 34.517761,73.345787 
	C34.219769,73.614304 34.084721,73.793236 34.002495,74.012032 
	C33.209621,73.385506 32.416744,72.758987 31.240509,71.735321 
	C30.255054,70.863228 29.652958,70.388298 29.050859,69.913361 
	C29.050859,69.913361 29.023214,69.981461 29.008982,69.599609 
	C28.146746,67.226120 27.298742,65.234482 26.596981,63.015984 
	C26.617729,62.470043 26.492231,62.150955 26.328129,61.380466 
	C26.187532,56.950634 26.085543,52.972202 26.080441,48.645966 
	C26.260738,47.584084 26.344145,46.870003 26.609993,46.269150 
	C26.792433,46.382374 27.215740,46.454678 27.330673,46.462330 
	C27.685930,46.417141 27.866943,46.280422 28.308132,46.051060 
	C29.052208,46.076710 29.476795,46.111122 29.975269,46.412033 
	C30.339197,47.125912 30.629234,47.573296 30.982430,48.420776 
	C31.195202,52.816261 31.344820,56.811653 31.382929,61.045792 
	C31.476105,61.555683 31.680788,61.826824 31.958626,62.453903 
	C33.554237,67.792702 36.937012,69.685226 42.282516,68.863541 
	C43.216492,68.550705 43.857388,68.178429 44.625618,67.783524 
	C44.752953,67.760887 44.801178,67.506760 45.072296,67.307587 
	C46.659431,64.643707 48.755951,62.287849 49.118217,59.690136 
	C49.744633,55.198345 49.295044,50.556499 49.324654,45.959248 
	C49.352474,45.940895 49.335915,45.876335 49.541534,45.909771 
	C49.747158,45.943207 50.156918,45.867752 50.448044,45.948273 
	C51.753426,46.051773 52.767681,46.074753 53.884933,46.136383 
	C53.987930,46.175030 54.073353,45.972275 54.039124,46.433712 
	C54.055099,50.595905 54.105305,54.296661 54.086384,58.389183 
	C54.349022,60.184723 54.274590,61.920757 55.095531,62.924400 
	C56.908634,65.141006 58.882671,68.096230 61.318840,68.733963 
	C65.211288,69.752937 69.621719,69.310333 71.068314,64.055412 
	C71.033279,64.047028 71.055748,64.115494 71.298317,64.025780 
	C71.611214,63.634445 71.681541,63.332821 71.821198,62.677261 
	C72.130371,60.923111 72.370224,59.522900 72.759544,57.734161 
	C72.828819,56.527111 72.748627,55.708588 72.691498,54.544907 
	C72.700264,53.508389 72.685966,52.817036 72.763809,51.810711 
	C72.784050,51.289116 72.712151,51.082489 72.677864,50.640434 
	C72.715485,50.405006 72.909378,49.969379 73.158691,49.726315 
	C73.629608,48.344170 73.851227,47.205090 74.102341,45.874870 
	C74.131851,45.683727 74.092995,45.298870 74.392929,45.229591 
	C75.100777,45.187454 75.508682,45.214588 75.914124,45.449795 
	C75.911652,45.657864 75.971008,46.069763 75.977066,46.426769 
	C76.504059,48.148674 77.024994,49.513577 77.724106,51.304390 
	C77.745834,54.146088 77.589394,56.561863 77.179085,59.126629 
	C76.930420,60.512604 76.935623,61.749596 76.937424,63.354965 
	C76.583786,65.124199 76.233536,66.525055 75.883293,67.925911 
z"/>
<path fill="#E8BC3C" opacity="1.000000" stroke="none" 
	d="
M74.923897,84.906952 
	C74.731064,85.130989 74.538239,85.355034 73.769943,85.797592 
	C72.938042,86.048424 72.691299,86.116127 72.454254,86.219223 
	C72.329926,86.531372 72.103943,86.724709 71.380394,86.439850 
	C69.748375,85.413445 68.512268,84.746399 67.252319,83.869858 
	C67.286293,83.326981 67.155998,83.103088 66.837585,82.988701 
	C70.841484,79.530411 74.845390,76.072128 79.206146,72.102325 
	C80.720459,69.715660 81.877907,67.840508 83.256943,65.717499 
	C83.645561,64.599045 83.812607,63.728458 84.203186,62.691277 
	C84.457726,61.989456 84.488724,61.454227 84.606155,60.602791 
	C84.717247,59.850548 84.741882,59.414509 85.047882,58.762730 
	C85.324547,57.656063 85.319855,56.765137 85.451141,55.581860 
	C85.796455,54.465172 86.005775,53.640839 86.571472,52.940315 
	C87.611633,53.372169 88.295425,53.680206 88.992142,54.339405 
	C89.248192,55.810448 89.491325,56.930332 89.780556,58.276405 
	C89.826653,58.502590 89.935287,58.951302 89.948456,59.157017 
	C89.977966,59.649849 90.088097,59.894760 90.381439,60.188213 
	C90.470840,60.278965 90.653099,60.100929 90.653107,60.100929 
	C90.525566,60.494713 90.398026,60.888496 90.010628,61.675312 
	C89.599480,62.322388 89.625801,62.556416 89.829742,62.770435 
	C89.747292,63.260086 89.664848,63.749737 89.343170,64.751083 
	C88.981071,65.530579 88.972412,65.802025 89.006454,66.458817 
	C88.888199,67.095154 88.841446,67.349792 88.766922,67.573975 
	C88.739151,67.543533 88.880402,67.446129 88.644875,67.891968 
	C88.388359,68.673309 88.367371,69.008812 88.346382,69.344307 
	C84.471878,74.471291 80.597382,79.598274 76.273117,84.617180 
	C75.523544,84.641716 75.223717,84.774338 74.923897,84.906952 
z"/>
<path fill="#055099" opacity="1.000000" stroke="none" 
	d="
M86.215096,52.816502 
	C86.005775,53.640839 85.796455,54.465172 85.209732,55.699654 
	C84.810402,57.066029 84.788467,58.022251 84.766525,58.978474 
	C84.741882,59.414509 84.717247,59.850548 84.509979,60.553192 
	C84.327354,60.819798 84.112068,60.841133 83.865860,61.136848 
	C83.424881,62.943493 83.230125,64.454422 83.035355,65.965355 
	C81.877907,67.840508 80.720459,69.715660 79.275742,71.758408 
	C78.142403,70.705589 77.296333,69.485184 76.166779,68.095345 
	C76.233536,66.525055 76.583786,65.124199 77.203110,63.115562 
	C77.459114,61.331066 77.446037,60.154354 77.432953,58.977642 
	C77.589394,56.561863 77.745834,54.146088 77.845573,51.465923 
	C77.788872,51.201538 78.172691,51.074417 78.334778,50.965729 
	C78.314461,50.579071 78.132065,50.301105 77.865875,49.627625 
	C77.843895,48.162125 77.905708,47.092129 78.268356,45.962135 
	C79.050217,44.934917 79.531242,43.967697 80.012268,43.000481 
	C79.723274,40.593369 79.434288,38.186260 79.428894,35.376534 
	C80.191498,34.949505 80.670494,34.925095 81.358772,35.150085 
	C82.357712,36.918797 83.147385,38.438110 83.877625,40.226425 
	C83.880013,40.668373 83.941841,40.841316 84.008629,41.242332 
	C84.062340,41.800102 84.236870,42.037216 84.615807,42.412155 
	C84.694412,42.642548 84.889908,43.088448 84.804413,43.490410 
	C84.795937,44.432728 84.872948,44.973087 84.752792,45.769325 
	C84.832886,47.723351 85.110153,49.421501 85.518791,51.321514 
	C85.838470,51.954418 86.026787,52.385460 86.215096,52.816502 
z"/>
<path fill="#E2BD40" opacity="1.000000" stroke="none" 
	d="
M20.990330,25.371859 
	C22.663223,23.839273 24.195484,22.627289 26.343636,21.243677 
	C28.366905,20.380844 29.774282,19.689640 31.405939,19.009521 
	C31.630220,19.020605 32.078682,19.044773 32.127937,19.420292 
	C32.516979,20.754354 32.856770,21.712898 33.468964,22.531017 
	C33.896141,22.523962 34.050919,22.657331 33.800476,22.926682 
	C33.207729,23.277218 33.020210,23.491776 32.837555,23.742302 
	C32.842415,23.778275 32.782036,23.737965 32.483902,23.757427 
	C31.838240,24.217705 31.490707,24.658516 30.950724,25.383125 
	C29.167633,27.175333 27.576992,28.683743 25.705795,30.254864 
	C25.184591,30.817820 24.943943,31.318064 24.777195,31.844250 
	C24.851095,31.870192 24.730871,31.769779 24.440117,31.869825 
	C23.917639,32.500645 23.685915,33.031422 23.524082,33.564545 
	C23.593971,33.566898 23.463150,33.616367 23.246082,33.730431 
	C22.754688,34.071884 22.630709,34.363228 22.817347,34.780815 
	C22.977613,34.843105 22.656347,34.733665 22.470001,34.888046 
	C22.131365,35.346264 22.104845,35.660686 22.080002,36.256340 
	C21.279568,37.413044 20.603231,38.299107 19.951273,39.051880 
	C19.975649,38.918587 19.923426,38.652657 19.833740,38.373280 
	C18.896400,36.571201 18.048748,35.048500 17.201094,33.525799 
	C17.282093,33.184792 17.363091,32.843784 17.698818,31.974115 
	C17.953550,31.445454 18.019093,31.199465 18.019093,31.199465 
	C18.962626,29.363796 19.906160,27.528128 20.990330,25.371859 
z"/>
<path fill="#E5BB43" opacity="1.000000" stroke="none" 
	d="
M25.907438,75.189087 
	C30.080116,78.014915 34.252796,80.840752 38.591484,83.788422 
	C38.757488,83.910255 38.748341,84.280479 38.722672,84.471420 
	C38.697002,84.662369 38.700161,85.048683 38.568283,85.175354 
	C38.286018,85.495399 38.158497,85.702835 37.796371,86.005005 
	C37.394333,86.750877 37.249767,87.416077 36.992420,88.312241 
	C36.790630,88.689644 36.701618,88.836067 36.625015,88.947670 
	C36.637417,88.912842 36.705090,88.883057 36.307083,88.839417 
	C31.509333,86.186752 27.109585,83.577744 22.709835,80.968735 
	C22.535181,80.463531 22.360527,79.958328 22.045593,79.019798 
	C21.955212,78.390198 22.005112,78.193924 22.380833,77.967331 
	C23.461123,77.310692 24.215590,76.684372 25.167351,75.936081 
	C25.641670,75.641670 25.818649,75.396904 25.919796,75.104828 
	C25.944010,75.129845 25.907438,75.189087 25.907438,75.189087 
z"/>
<path fill="#08509C" opacity="1.000000" stroke="none" 
	d="
M26.450737,63.242840 
	C27.298742,65.234482 28.146746,67.226120 29.042143,69.583771 
	C27.786404,70.859070 26.483269,71.768356 24.756199,72.940376 
	C24.153156,73.161797 23.974049,73.120491 23.673376,72.637451 
	C23.357294,71.960228 23.162779,71.724739 23.032291,71.459732 
	C23.096319,71.430206 23.226572,71.587181 23.059013,71.188431 
	C22.389355,69.178062 21.887257,67.566437 21.545319,65.512100 
	C21.420765,61.723598 21.136055,58.377811 21.194098,54.900383 
	C23.019085,52.843750 24.501318,50.918758 25.983551,48.993771 
	C26.085543,52.972202 26.187532,56.950634 26.205101,61.611229 
	C26.230698,62.609875 26.340717,62.926357 26.450737,63.242840 
z"/>
<path fill="#05549A" opacity="1.000000" stroke="none" 
	d="
M22.403679,81.136818 
	C27.109585,83.577744 31.509333,86.186752 36.275932,89.017258 
	C36.642788,89.238747 36.337109,89.426743 36.337109,89.426743 
	C31.192482,92.213776 24.667683,91.788826 22.592245,87.984596 
	C21.618319,86.199402 22.213457,83.558182 22.403679,81.136818 
z"/>
<path fill="#EEBD32" opacity="1.000000" stroke="none" 
	d="
M13.692591,41.232861 
	C14.028211,40.261326 14.363830,39.289795 14.829704,37.980064 
	C14.959958,37.641869 14.909610,37.774925 14.909610,37.774925 
	C14.909610,37.774925 15.105532,37.383652 15.385550,37.352989 
	C15.665568,37.322327 15.928477,37.433704 16.088863,37.637875 
	C16.546892,38.266346 16.844534,38.690647 17.147848,39.418922 
	C17.688900,40.492905 18.224279,41.262917 18.745983,42.448677 
	C18.436798,47.574894 18.141293,52.285366 17.491846,56.997208 
	C16.430031,56.996422 15.722155,56.994270 15.006753,56.536377 
	C14.674415,51.863464 14.349602,47.646286 13.923397,43.071236 
	C13.778868,42.219860 13.735730,41.726360 13.692591,41.232861 
z"/>
<path fill="#064F8E" opacity="1.000000" stroke="none" 
	d="
M13.294361,41.235962 
	C13.735730,41.726360 13.778868,42.219860 13.690197,43.299709 
	C13.408920,44.294926 13.259453,44.703793 12.809351,45.389587 
	C12.749628,50.394505 12.990541,55.122490 13.354290,60.222866 
	C13.754992,62.398693 14.032857,64.202133 14.035078,66.074097 
	C12.845442,66.084869 11.931448,66.027115 11.017456,65.969353 
	C10.686584,64.873795 10.355710,63.778240 10.012859,61.870987 
	C9.992061,56.045475 9.983240,51.031658 9.974421,46.017838 
	C10.948325,44.424911 11.922229,42.831985 13.294361,41.235962 
z"/>
<path fill="#EEBC3F" opacity="1.000000" stroke="none" 
	d="
M14.310722,66.005569 
	C14.032857,64.202133 13.754992,62.398693 13.526226,60.148933 
	C13.575327,59.702614 13.761615,59.377556 13.935285,59.302132 
	C14.108954,59.226707 14.438576,59.040298 14.556192,58.799599 
	C14.787299,58.036636 14.900789,57.514378 15.014278,56.992119 
	C15.722155,56.994270 16.430031,56.996422 17.570377,57.401627 
	C18.663492,60.376095 19.324139,62.947510 19.863245,65.787331 
	C19.172150,68.198517 18.602592,70.341301 17.888905,72.385437 
	C17.744774,72.286804 17.403996,72.363518 17.403996,72.363518 
	C17.414045,72.082581 17.309172,71.854454 16.902355,71.316101 
	C15.913795,69.303894 15.112258,67.654732 14.310722,66.005569 
z"/>
<path fill="#095292" opacity="1.000000" stroke="none" 
	d="
M38.037823,73.741348 
	C42.779224,74.096756 47.401031,74.170403 50.938076,70.064980 
	C51.253284,69.699120 52.768368,70.367012 53.850174,70.863815 
	C48.534351,76.689987 38.820572,78.428520 34.121643,74.358337 
	C34.084721,73.793236 34.219769,73.614304 34.816036,73.544472 
	C36.162228,73.656250 37.100025,73.698799 38.037823,73.741348 
z"/>
<path fill="#F0BF31" opacity="1.000000" stroke="none" 
	d="
M18.033039,72.484077 
	C18.602592,70.341301 19.172150,68.198517 20.096470,65.876877 
	C20.719107,65.941544 21.030416,66.027145 21.385160,65.954811 
	C21.887257,67.566437 22.389355,69.178062 23.032146,71.161987 
	C23.172840,71.534286 22.968264,71.489250 22.968264,71.489250 
	C23.162779,71.724739 23.357294,71.960228 23.419079,72.807884 
	C22.513432,74.793213 21.740515,76.166367 20.864998,77.375122 
	C20.762398,77.210724 20.374821,77.208626 20.374821,77.208626 
	C20.183556,76.816933 19.992287,76.425232 19.609116,75.534164 
	C18.955822,74.184555 18.494431,73.334312 18.033039,72.484077 
z"/>
<path fill="#0056B0" opacity="1.000000" stroke="none" 
	d="
M9.647655,46.148659 
	C9.983240,51.031658 9.992061,56.045475 9.993383,61.524994 
	C5.426101,60.732571 6.832812,56.620361 6.699035,53.827232 
	C6.580811,51.358837 8.372479,48.798965 9.647655,46.148659 
z"/>
<path fill="#0351AE" opacity="1.000000" stroke="none" 
	d="
M14.035078,66.074097 
	C15.112258,67.654732 15.913795,69.303894 16.708452,71.303131 
	C13.348267,71.653198 9.994962,71.653198 6.641656,71.653198 
	C6.486883,71.241867 6.332109,70.830544 6.177336,70.419212 
	C7.663664,69.127686 9.149992,67.836151 10.826887,66.256989 
	C11.931448,66.027115 12.845442,66.084869 14.035078,66.074097 
z"/>
<path fill="#055195" opacity="1.000000" stroke="none" 
	d="
M47.879700,92.744240 
	C46.627369,93.494537 45.449062,94.672462 44.107067,94.904770 
	C41.438469,95.366699 38.679783,95.308159 35.462864,95.493164 
	C35.958611,93.598427 36.378063,91.995262 36.590057,89.879791 
	C36.382591,89.367493 36.629238,88.976257 36.989052,89.101448 
	C37.599945,89.191597 37.851021,89.156563 38.288277,89.338730 
	C38.980091,89.820671 39.485714,90.085403 40.106087,90.683151 
	C40.827751,91.314972 41.434669,91.613777 42.267059,92.163368 
	C43.811062,92.407700 45.129589,92.401245 46.798027,92.514877 
	C47.391861,92.671387 47.635780,92.707809 47.879700,92.744240 
z"/>
<path fill="#F1BD34" opacity="1.000000" stroke="none" 
	d="
M68.912216,87.934662 
	C68.784729,88.221382 68.657242,88.508102 68.401627,88.937286 
	C68.273491,89.079750 68.400299,89.063850 68.400299,89.063850 
	C67.471642,89.277222 66.542992,89.490593 64.986366,89.761269 
	C64.039413,89.819977 63.855976,89.978539 63.808094,90.294243 
	C63.808094,90.294243 63.602585,90.337151 63.492733,90.156136 
	C63.382881,89.975121 63.105301,89.659744 62.918671,89.517670 
	C62.138672,89.333443 61.545303,89.291283 60.739624,89.285286 
	C60.527313,89.321449 60.284153,89.677002 60.284153,89.677002 
	C60.284153,89.677002 60.232651,89.655449 60.323158,89.341827 
	C60.353348,88.098793 60.293022,87.169388 60.232697,86.239983 
	C60.741623,85.923973 61.250553,85.607964 62.280663,85.268661 
	C63.178417,85.288765 63.554989,85.332176 64.204674,85.514046 
	C65.955925,86.413216 67.434067,87.173943 68.912216,87.934662 
M61.397106,86.454636 
	C61.397106,86.454636 61.490963,86.395195 61.397106,86.454636 
z"/>
<path fill="#FEBA0E" opacity="1.000000" stroke="none" 
	d="
M39.991341,90.350128 
	C39.485714,90.085403 38.980091,89.820671 38.320450,89.174088 
	C38.171955,88.569878 38.188416,88.348328 38.373024,87.913246 
	C38.723202,87.210632 38.916180,86.722359 39.509651,86.216026 
	C41.949795,85.934105 43.989437,85.670258 46.286568,85.472130 
	C46.883354,85.500465 47.222656,85.463066 47.561958,85.425667 
	C47.561958,85.425667 47.586296,85.659042 47.414230,85.744217 
	C47.242161,85.829384 46.938217,86.167068 46.861137,86.291412 
	C46.722633,86.606133 46.697891,86.801186 46.565933,87.257309 
	C46.245678,88.276688 46.069317,89.039673 45.867607,89.824966 
	C45.842262,89.847260 45.790405,89.890495 45.583668,89.914047 
	C45.376930,89.937592 44.962807,90.004349 44.584465,90.020935 
	C43.448135,90.064064 42.690147,90.090607 41.933990,90.080765 
	C41.935818,90.044373 41.977100,89.984329 41.900803,89.855850 
	C41.577358,89.516518 41.305431,89.483719 40.793449,89.685143 
	C40.247475,89.814034 40.051865,90.016975 39.991341,90.350128 
z"/>
<path fill="#F1BD2E" opacity="1.000000" stroke="none" 
	d="
M20.967598,77.539528 
	C21.740515,76.166367 22.513432,74.793213 23.540644,73.249619 
	C23.974049,73.120491 24.153156,73.161797 24.599102,73.272675 
	C25.125145,73.801353 25.384352,74.260475 25.775497,74.954338 
	C25.907438,75.189087 25.944010,75.129845 25.696411,75.186111 
	C25.216616,75.471626 25.057030,75.743523 24.970058,76.058052 
	C24.215590,76.684372 23.461123,77.310692 22.105852,77.860031 
	C21.325899,77.701874 21.146749,77.620697 20.967598,77.539528 
z"/>
<path fill="#E0B74D" opacity="1.000000" stroke="none" 
	d="
M69.380966,87.907074 
	C67.434067,87.173943 65.955925,86.413216 64.199142,85.405838 
	C63.920498,85.159172 64.013031,84.963203 64.337128,84.979996 
	C65.414085,84.644180 66.166954,84.291573 67.017746,83.951630 
	C67.115662,83.964310 67.276154,84.079361 67.276154,84.079361 
	C68.512268,84.746399 69.748375,85.413445 71.150414,86.422577 
	C70.827461,87.136269 70.338585,87.507874 69.380966,87.907074 
z"/>
<path fill="#E1BC49" opacity="1.000000" stroke="none" 
	d="
M17.142176,39.114952 
	C16.844534,38.690647 16.546892,38.266346 16.127991,37.354214 
	C16.071648,36.315571 16.136566,35.764763 16.201483,35.213951 
	C16.342333,34.780861 16.483183,34.347771 16.912563,33.720238 
	C18.048748,35.048500 18.896400,36.571201 19.487974,38.463898 
	C18.535320,38.927578 17.838749,39.021263 17.142176,39.114952 
z"/>
<path fill="#536955" opacity="1.000000" stroke="none" 
	d="
M92.054733,46.998543 
	C92.083763,50.661518 92.056435,54.368984 92.073532,58.535358 
	C91.823349,59.286903 91.528740,59.579544 90.943619,59.986557 
	C90.653099,60.100929 90.470840,60.278965 90.550461,59.892944 
	C90.678352,59.286301 90.726631,59.065681 90.825516,58.400093 
	C90.873337,54.652985 90.870560,51.350838 90.945305,47.773567 
	C91.074654,47.315056 91.126472,47.131676 91.349075,46.977928 
	C91.519859,47.007553 91.859200,47.078396 91.859200,47.078396 
	C91.859200,47.078396 91.998383,47.043037 92.054733,46.998543 
z"/>
<path fill="#557270" opacity="1.000000" stroke="none" 
	d="
M47.549088,85.055885 
	C47.222656,85.463066 46.883354,85.500465 46.337570,85.349693 
	C46.131084,85.161530 46.037201,84.913383 45.893253,84.731827 
	C45.492016,84.346680 45.200554,84.265076 44.629921,84.289032 
	C43.589012,84.244240 42.793102,84.215866 42.009254,83.923073 
	C42.036755,83.482857 42.052181,83.307068 42.067608,83.131287 
	C43.890476,83.649559 45.713345,84.167831 47.549088,85.055885 
z"/>
<path fill="#64715B" opacity="1.000000" stroke="none" 
	d="
M63.926033,85.267380 
	C63.554989,85.332176 63.178417,85.288765 62.545586,85.125092 
	C63.524956,84.313492 64.760582,83.622169 66.416901,82.959770 
	C67.155998,83.103088 67.286293,83.326981 67.252319,83.869858 
	C67.276154,84.079361 67.115662,83.964310 66.699623,83.962341 
	C65.526733,84.294647 64.769882,84.628922 64.013031,84.963203 
	C64.013031,84.963203 63.920498,85.159172 63.926033,85.267380 
z"/>
<path fill="#4E85AD" opacity="1.000000" stroke="none" 
	d="
M62.048416,73.702522 
	C63.085194,73.731529 64.121971,73.760529 65.834686,73.764618 
	C66.687447,73.658798 66.864250,73.577881 67.041061,73.496964 
	C67.041061,73.496964 67.513939,73.600197 67.714996,73.734222 
	C65.789406,74.139664 63.662754,74.411072 61.499104,74.336929 
	C61.657543,73.895096 61.852978,73.798813 62.048416,73.702522 
z"/>
<path fill="#08509C" opacity="1.000000" stroke="none" 
	d="
M29.054367,70.215897 
	C29.652958,70.388298 30.255054,70.863228 30.954647,71.615173 
	C30.387384,71.434258 29.722628,70.976349 29.054367,70.215897 
z"/>
<path fill="#818964" opacity="1.000000" stroke="none" 
	d="
M47.468544,85.848206 
	C47.950283,87.435623 48.205647,89.004219 47.957363,90.715469 
	C47.453716,90.858124 47.158077,90.631699 47.318245,90.487839 
	C47.478409,90.343971 47.645531,89.947395 47.751572,89.547028 
	C47.551147,88.153465 47.244682,87.160263 46.938217,86.167068 
	C46.938217,86.167068 47.242161,85.829384 47.468544,85.848206 
z"/>
<path fill="#416164" opacity="1.000000" stroke="none" 
	d="
M17.888906,72.385437 
	C18.494431,73.334312 18.955822,74.184555 19.430302,75.400192 
	C18.711458,74.885170 17.979527,74.004753 17.325794,72.743927 
	C17.403996,72.363518 17.744774,72.286804 17.888906,72.385437 
z"/>
<path fill="#3D6067" opacity="1.000000" stroke="none" 
	d="
M88.653893,69.173996 
	C88.367371,69.008812 88.388359,68.673309 88.633514,67.919693 
	C88.857674,67.501579 88.794693,67.604424 88.794693,67.604424 
	C88.841446,67.349792 88.888199,67.095154 89.172882,66.387108 
	C89.410797,65.933693 89.748749,65.802010 89.748749,65.802010 
	C89.486305,66.869232 89.223854,67.936462 88.653893,69.173996 
z"/>
<path fill="#596F5C" opacity="1.000000" stroke="none" 
	d="
M59.921719,86.351814 
	C60.293022,87.169388 60.353348,88.098793 60.301399,89.359314 
	C59.996330,88.614830 59.803535,87.539238 59.921719,86.351814 
z"/>
<path fill="#BEE1EB" opacity="1.000000" stroke="none" 
	d="
M61.815681,73.527039 
	C61.852978,73.798813 61.657543,73.895096 61.172718,74.143555 
	C60.463253,74.158859 60.043175,74.021996 59.297318,73.824097 
	C59.842010,73.625893 60.712479,73.488724 61.815681,73.527039 
z"/>
<path fill="#3C6160" opacity="1.000000" stroke="none" 
	d="
M41.749268,83.101318 
	C42.052181,83.307068 42.036755,83.482857 41.718960,84.021637 
	C41.010170,84.414444 40.603741,84.444260 39.842453,84.370422 
	C39.241173,84.271332 38.994755,84.275909 38.748341,84.280479 
	C38.748341,84.280479 38.757488,83.910255 38.929756,83.842880 
	C39.878323,83.540794 40.654621,83.306076 41.749268,83.101318 
z"/>
<path fill="#7A9389" opacity="1.000000" stroke="none" 
	d="
M60.405724,90.041748 
	C60.284153,89.677002 60.527313,89.321449 61.064339,89.485214 
	C62.102676,89.652573 62.603989,89.656158 63.105301,89.659744 
	C63.105301,89.659744 63.382881,89.975121 63.391754,90.184814 
	C62.442848,90.398499 61.485073,90.402496 60.405724,90.041748 
z"/>
<path fill="#D1AB4A" opacity="1.000000" stroke="none" 
	d="
M15.969431,35.250404 
	C16.136566,35.764763 16.071648,36.315571 15.967604,37.150043 
	C15.928477,37.433704 15.665568,37.322327 15.562111,37.223778 
	C15.551561,36.512436 15.644468,35.899651 15.969431,35.250404 
z"/>
<path fill="#D6B851" opacity="1.000000" stroke="none" 
	d="
M47.632843,90.908936 
	C47.811974,90.959740 47.708611,91.239014 47.321205,91.354263 
	C46.708351,91.481354 46.482903,91.493179 46.184551,91.365433 
	C46.016251,91.037766 45.936665,90.843201 45.860542,90.454529 
	C45.848194,90.266907 45.790405,89.890495 45.790405,89.890495 
	C45.790405,89.890495 45.842262,89.847260 46.093529,89.840057 
	C46.344799,89.832863 46.793846,89.791870 46.848217,89.846169 
	C46.902588,89.900467 47.011410,90.008987 47.034416,90.114578 
	C47.057419,90.220169 47.158077,90.631699 47.158077,90.631699 
	C47.158077,90.631699 47.453716,90.858124 47.632843,90.908936 
z"/>
<path fill="#295770" opacity="1.000000" stroke="none" 
	d="
M20.864998,77.375122 
	C21.146749,77.620697 21.325899,77.701874 21.780033,77.890350 
	C22.005112,78.193924 21.955212,78.390198 21.808004,78.874367 
	C21.254230,78.735970 20.797764,78.309669 20.358059,77.546005 
	C20.374821,77.208626 20.762398,77.210724 20.864998,77.375122 
z"/>
<path fill="#E0B74D" opacity="1.000000" stroke="none" 
	d="
M72.592850,86.321823 
	C72.691299,86.116127 72.938042,86.048424 73.382172,86.012589 
	C73.290382,86.147514 73.010910,86.285973 72.592850,86.321823 
z"/>
<path fill="#52796B" opacity="1.000000" stroke="none" 
	d="
M46.257450,91.505013 
	C46.482903,91.493179 46.708351,91.481354 47.271751,91.494720 
	C47.671852,91.720505 47.734001,91.921097 47.837929,92.432968 
	C47.635780,92.707809 47.391861,92.671387 46.732094,92.296379 
	C46.316246,91.957802 46.257450,91.505013 46.257450,91.505013 
z"/>
<path fill="#FEBA0E" opacity="1.000000" stroke="none" 
	d="
M36.487640,89.391327 
	C36.337109,89.426743 36.642788,89.238747 36.673939,89.060898 
	C36.705090,88.883057 36.637417,88.912842 36.664101,88.973488 
	C36.690788,89.034134 36.629238,88.976257 36.629238,88.976257 
	C36.629238,88.976257 36.382591,89.367493 36.568520,89.505005 
	C36.754444,89.642509 36.638172,89.355911 36.487640,89.391327 
z"/>
<path fill="#D1AB4A" opacity="1.000000" stroke="none" 
	d="
M14.962881,37.771324 
	C14.909610,37.774925 14.959958,37.641869 14.992353,37.623268 
	C15.024748,37.604664 15.016151,37.767719 14.962881,37.771324 
z"/>
<path fill="#B8AC65" opacity="1.000000" stroke="none" 
	d="
M68.334541,89.019852 
	C68.400299,89.063850 68.273491,89.079750 68.296432,89.099236 
	C68.319366,89.118721 68.268784,88.975845 68.334541,89.019852 
z"/>
<path fill="#7A9389" opacity="1.000000" stroke="none" 
	d="
M63.985992,90.404083 
	C63.855976,89.978539 64.039413,89.819977 64.532440,89.907394 
	C64.688828,90.339760 64.507965,90.512329 63.985992,90.404083 
z"/>
<path fill="#A49656" opacity="1.000000" stroke="none" 
	d="
M89.704330,65.571136 
	C89.748749,65.802010 89.410797,65.933693 89.244377,66.005402 
	C88.972412,65.802025 88.981071,65.530579 89.245094,65.110352 
	C89.386246,64.957909 89.659920,65.340271 89.704330,65.571136 
z"/>
<path fill="#E1BC49" opacity="1.000000" stroke="none" 
	d="
M17.920179,31.222599 
	C18.019093,31.199465 17.953550,31.445454 17.925980,31.499981 
	C17.898407,31.554510 17.821266,31.245733 17.920179,31.222599 
z"/>
<path fill="#858C66" opacity="1.000000" stroke="none" 
	d="
M90.022400,62.686188 
	C89.625801,62.556416 89.599480,62.322388 89.910988,61.969353 
	C90.371185,62.064690 90.419136,62.308548 90.022400,62.686188 
z"/>
<path fill="#8F9150" opacity="1.000000" stroke="none" 
	d="
M75.212975,84.912537 
	C75.223717,84.774338 75.523544,84.641716 75.948395,84.669098 
	C75.882965,84.858780 75.692505,84.888458 75.212975,84.912537 
z"/>
<path fill="#0354A3" opacity="1.000000" stroke="none" 
	d="
M79.691132,42.880184 
	C79.531242,43.967697 79.050217,44.934917 78.177475,46.065567 
	C77.785767,46.228996 77.519608,46.158417 77.527641,45.862366 
	C76.995979,45.458118 76.456284,45.349922 75.916588,45.241722 
	C75.508682,45.214588 75.100777,45.187454 74.120026,45.177532 
	C73.334442,45.454407 73.121719,45.714069 72.742920,46.353077 
	C72.687683,47.811409 72.798531,48.890396 72.909378,49.969379 
	C72.909378,49.969379 72.715485,50.405006 72.519585,50.761890 
	C72.439682,51.454411 72.555672,51.790043 72.671669,52.125679 
	C72.685966,52.817036 72.700264,53.508389 72.507523,54.773502 
	C72.403687,56.272400 72.506882,57.197544 72.610077,58.122684 
	C72.370224,59.522900 72.130371,60.923111 71.678040,62.839554 
	C71.288910,63.587414 71.152306,63.840652 71.055748,64.115494 
	C71.055748,64.115494 71.033279,64.047028 70.691803,64.062637 
	C69.861557,64.168053 69.297119,64.129692 68.895355,64.366882 
	C62.846973,67.937721 59.968929,66.995018 57.070999,60.733776 
	C56.551865,59.612133 55.149872,58.899109 54.155510,57.997417 
	C54.105305,54.296661 54.055099,50.595905 54.334137,46.318428 
	C54.767719,43.482082 54.872059,41.222454 55.062176,38.685867 
	C55.726299,37.925854 56.304646,37.442802 57.149708,37.175484 
	C59.183250,39.003761 60.610344,39.229244 60.912407,36.327301 
	C61.095654,34.566872 60.984978,32.775845 61.006344,30.998566 
	C63.586685,31.776485 66.167023,32.554405 68.588852,33.875988 
	C66.791885,34.958542 65.153427,35.497433 62.559998,36.350414 
	C64.407631,38.683926 65.751396,40.381069 67.648331,42.776844 
	C69.089561,39.432564 70.044571,37.216530 70.999580,35.000496 
	C72.506355,35.595787 74.400703,35.814110 75.430740,36.873104 
	C77.049835,38.537720 78.086624,40.768715 79.691132,42.880184 
z"/>
<path fill="#03539F" opacity="1.000000" stroke="none" 
	d="
M19.926897,39.185173 
	C20.603231,38.299107 21.279568,37.413044 22.253586,36.091663 
	C22.753250,35.367870 22.788279,35.060310 22.656347,34.733665 
	C22.656347,34.733665 22.977613,34.843105 23.074535,34.708591 
	C23.268688,34.254841 23.365919,33.935604 23.463150,33.616367 
	C23.463150,33.616367 23.593971,33.566898 23.845985,33.515350 
	C24.308956,32.899124 24.519913,32.334454 24.730869,31.769779 
	C24.730871,31.769779 24.851095,31.870192 25.053894,31.766693 
	C25.499912,31.172848 25.743134,30.682499 25.986353,30.192152 
	C27.576992,28.683743 29.167633,27.175333 31.234861,25.317883 
	C32.068310,24.558550 32.425175,24.148258 32.782036,23.737965 
	C32.782036,23.737965 32.842415,23.778275 33.030647,23.834791 
	C33.547821,23.524439 33.876759,23.157570 34.205696,22.790701 
	C34.050919,22.657331 33.896141,22.523962 33.821915,22.443844 
	C34.257744,22.177702 34.613026,21.858307 35.290474,21.584896 
	C36.248520,21.577206 36.884399,21.523531 37.520275,21.469856 
	C37.512081,22.948664 37.638809,24.443014 37.470585,25.903387 
	C36.950653,30.416889 39.139805,32.259007 43.705574,32.092201 
	C43.999577,31.999363 44.001015,32.005947 43.999836,32.380104 
	C43.993168,33.502888 43.987682,34.251522 43.735031,34.999893 
	C43.487869,34.999634 42.993549,34.997604 42.883915,34.898476 
	C42.475876,34.671234 42.217888,34.737816 41.679432,35.139408 
	C35.928127,36.673359 33.464676,32.521702 30.233433,28.735985 
	C28.775661,30.813503 27.499607,32.475475 26.393581,34.243797 
	C24.588427,37.129898 22.894156,40.085350 20.953512,42.783489 
	C20.446203,42.296356 20.138481,42.037270 19.810514,41.345467 
	C19.835814,40.336887 19.881355,39.761028 19.926897,39.185173 
z"/>
<path fill="#055399" opacity="1.000000" stroke="none" 
	d="
M61.003990,30.749241 
	C60.984978,32.775845 61.095654,34.566872 60.912407,36.327301 
	C60.610344,39.229244 59.183250,39.003761 57.207901,36.826057 
	C56.997025,34.557514 56.994671,32.854134 56.856514,30.827080 
	C55.825142,30.369829 54.929565,30.236254 53.654228,30.066357 
	C52.517151,29.967880 51.759838,29.905722 51.002048,29.488323 
	C51.001385,28.422667 51.001198,27.712248 51.001011,27.001831 
	C52.122288,26.377237 53.243565,25.752645 54.906387,25.299656 
	C57.298237,26.981258 59.148544,28.491257 60.998848,30.001255 
	C60.998848,30.001255 61.001633,30.499918 61.003990,30.749241 
z"/>
<path fill="#035393" opacity="1.000000" stroke="none" 
	d="
M36.450375,14.578922 
	C36.320759,14.096581 36.184891,13.615819 36.062653,13.131616 
	C35.645180,11.477903 35.232502,9.822983 34.817993,8.168524 
	C36.388580,8.620102 38.018280,8.930323 39.515831,9.556556 
	C41.734123,10.484181 43.887196,11.585592 45.979134,12.770037 
	C46.188915,12.888812 45.785881,14.089921 45.258675,14.697456 
	C44.661201,14.343815 44.426815,14.131717 43.844711,13.717733 
	C42.574642,13.595904 41.606796,13.726237 40.546059,13.892637 
	C40.453163,13.928704 40.254017,13.920681 40.090958,13.795015 
	C39.588993,13.628837 39.394730,13.777411 39.240475,14.232613 
	C39.135834,14.350150 39.077446,14.659423 38.755470,14.570561 
	C37.772453,14.514108 37.111412,14.546515 36.450375,14.578922 
z"/>
<path fill="#02549B" opacity="1.000000" stroke="none" 
	d="
M54.851482,17.007420 
	C51.175549,16.890944 49.961609,14.456429 48.913429,10.395009 
	C52.230270,10.395009 55.011471,10.395009 58.004158,10.752846 
	C58.215649,11.110683 58.154690,11.285093 57.854092,11.223150 
	C57.024597,11.432157 56.495701,11.703108 55.751137,12.170258 
	C55.399357,12.916824 55.263248,13.467193 55.078445,14.389921 
	C54.970329,15.510661 54.910904,16.259041 54.851482,17.007420 
z"/>
<path fill="#0351AC" opacity="1.000000" stroke="none" 
	d="
M70.748077,34.878304 
	C70.044571,37.216530 69.089561,39.432564 67.648331,42.776844 
	C65.751396,40.381069 64.407631,38.683926 62.559998,36.350414 
	C65.153427,35.497433 66.791885,34.958542 68.714790,34.209465 
	C69.498352,34.251556 69.997459,34.503834 70.748077,34.878304 
z"/>
<path fill="#E3B750" opacity="1.000000" stroke="none" 
	d="
M32.078682,19.044773 
	C32.078682,19.044773 31.630220,19.020605 31.246811,18.920921 
	C30.671638,18.675549 30.465010,18.555443 30.243517,18.460918 
	C31.718922,17.641962 33.194328,16.823004 35.056198,15.912159 
	C35.442661,15.820272 35.546101,15.871025 35.546101,15.871025 
	C35.815224,15.697474 36.084343,15.523921 36.955582,15.332904 
	C37.781761,15.523065 37.958218,15.766463 38.177036,16.371880 
	C39.235435,17.230207 40.203861,17.762293 41.004173,18.550413 
	C39.854103,19.498814 38.872147,20.191175 37.890190,20.883537 
	C37.644699,20.932047 37.399204,20.980556 36.608521,21.053326 
	C35.688007,21.104809 35.312675,21.132034 34.866753,20.822205 
	C33.890327,20.005024 32.984505,19.524899 32.078682,19.044773 
z"/>
<path fill="#0354A3" opacity="1.000000" stroke="none" 
	d="
M77.941650,32.056831 
	C74.650772,29.339045 71.359886,26.621258 68.284943,23.524681 
	C68.670708,23.119471 68.840538,23.093046 69.336105,23.143703 
	C72.082397,25.123917 74.502960,27.027048 76.979713,29.239784 
	C77.491745,29.892210 77.947594,30.235031 78.440582,30.579292 
	C78.477730,30.580736 78.502579,30.650816 78.360748,30.954247 
	C78.175224,31.476652 78.131538,31.695631 78.051315,31.950180 
	C78.014786,31.985750 77.941650,32.056831 77.941650,32.056831 
z"/>
<path fill="#03549D" opacity="1.000000" stroke="none" 
	d="
M59.794777,8.248272 
	C62.842564,8.021305 65.939758,7.652887 65.707504,12.313456 
	C64.618011,12.439092 63.826260,12.175325 62.710041,11.791625 
	C61.255535,11.439316 60.125496,11.206940 58.995457,10.974564 
	C59.193478,10.148559 59.391499,9.322553 59.794777,8.248272 
z"/>
<path fill="#0354A3" opacity="1.000000" stroke="none" 
	d="
M50.604195,27.002419 
	C51.001198,27.712248 51.001385,28.422667 50.743214,29.546810 
	C50.314327,30.007542 50.143803,30.054546 49.636887,30.054033 
	C48.600067,30.368156 47.899632,30.729795 47.135841,31.338411 
	C47.111641,31.750799 47.150795,31.916212 47.097054,32.082947 
	C47.004154,32.084274 46.845863,31.986956 46.490234,31.987421 
	C45.423409,31.993906 44.712212,31.999928 44.001015,32.005947 
	C44.001015,32.005947 43.999577,31.999363 43.996452,31.994274 
	C44.970570,28.963583 46.290409,26.364946 50.604195,27.002419 
z"/>
<path fill="#0354A3" opacity="1.000000" stroke="none" 
	d="
M60.978188,29.641449 
	C59.148544,28.491257 57.298237,26.981258 55.222908,25.238548 
	C58.673008,24.077559 60.248764,26.075392 60.978188,29.641449 
z"/>
<path fill="#5D6761" opacity="1.000000" stroke="none" 
	d="
M38.274002,20.926954 
	C38.872147,20.191175 39.854103,19.498814 41.007736,18.521791 
	C41.179405,18.237133 41.141930,18.192694 41.309074,18.275902 
	C41.476215,18.359112 41.843567,18.284674 42.153919,18.263210 
	C42.849327,18.090094 43.234383,17.938438 43.743988,17.870838 
	C43.868542,17.954897 44.121353,18.117392 44.121353,18.117392 
	C42.300175,19.068384 40.478992,20.019379 38.274002,20.926954 
z"/>
<path fill="#C8B95F" opacity="1.000000" stroke="none" 
	d="
M58.761845,11.049805 
	C60.125496,11.206940 61.255535,11.439316 62.715179,12.061591 
	C63.040844,12.630659 63.036911,12.809826 62.659843,13.004074 
	C60.841141,12.791755 59.395576,12.564355 58.003540,12.074449 
	C58.089607,11.636325 58.122147,11.460710 58.154690,11.285093 
	C58.154690,11.285093 58.215649,11.110683 58.130028,11.076464 
	C58.044407,11.042243 58.528233,11.125045 58.761845,11.049805 
z"/>
<path fill="#1C4E77" opacity="1.000000" stroke="none" 
	d="
M69.010368,23.066624 
	C68.840538,23.093046 68.670708,23.119471 68.246094,23.186975 
	C67.070541,22.782152 66.149788,22.336248 65.155830,21.375132 
	C65.082634,20.859921 65.095650,20.407396 65.406830,20.434845 
	C66.815460,21.330404 67.912918,22.198513 69.010368,23.066624 
z"/>
<path fill="#0354A3" opacity="1.000000" stroke="none" 
	d="
M81.149498,34.900684 
	C80.670494,34.925095 80.191498,34.949505 79.352844,34.985680 
	C78.663673,34.230171 78.334152,33.462898 77.973137,32.376228 
	C77.941650,32.056831 78.014786,31.985750 78.402618,31.923962 
	C79.019760,31.809998 79.249077,31.757820 79.672073,31.952055 
	C80.293671,33.099205 80.721588,33.999943 81.149498,34.900684 
z"/>
<path fill="#B7AA56" opacity="1.000000" stroke="none" 
	d="
M29.932190,18.482676 
	C30.465010,18.555443 30.671638,18.675549 31.022530,18.909836 
	C29.774282,19.689640 28.366905,20.380844 26.621666,21.057890 
	C27.396156,20.197298 28.508509,19.350864 29.932190,18.482676 
z"/>
<path fill="#C8B95F" opacity="1.000000" stroke="none" 
	d="
M56.250034,18.759464 
	C56.250034,18.759464 56.120964,18.387545 56.061340,17.790865 
	C55.950809,16.101357 55.899899,15.008528 55.968201,13.905420 
	C56.087410,13.895142 56.309513,13.984219 56.457047,14.278923 
	C56.818325,15.866844 57.032066,17.160059 56.999619,18.538776 
	C56.585632,18.669340 56.417831,18.714403 56.250034,18.759464 
z"/>
<path fill="#4C6754" opacity="1.000000" stroke="none" 
	d="
M65.095650,20.407396 
	C65.095650,20.407396 65.082634,20.859921 65.038658,21.083082 
	C63.930668,21.181940 62.866657,21.057634 61.388966,20.733522 
	C60.975288,20.533716 60.954617,20.206654 61.371056,20.138655 
	C62.890209,20.182903 63.992931,20.295151 65.095650,20.407396 
z"/>
<path fill="#5B756C" opacity="1.000000" stroke="none" 
	d="
M60.954617,20.206654 
	C60.954617,20.206654 60.975288,20.533716 60.987980,20.696878 
	C59.830662,20.743549 58.660656,20.627056 57.381989,20.107876 
	C57.273331,19.705187 57.599869,19.359053 57.903343,19.534895 
	C59.122753,19.876043 60.038685,20.041348 60.954617,20.206654 
z"/>
<path fill="#83946A" opacity="1.000000" stroke="none" 
	d="
M55.848991,13.915699 
	C55.899899,15.008528 55.950809,16.101357 55.996925,17.604862 
	C55.705391,17.827337 55.418648,17.639133 54.991695,17.229176 
	C54.910904,16.259041 54.970329,15.510661 55.258545,14.362572 
	C55.487335,13.962860 55.848991,13.915699 55.848991,13.915699 
z"/>
<path fill="#50716C" opacity="1.000000" stroke="none" 
	d="
M44.146935,13.969894 
	C44.426815,14.131717 44.661201,14.343815 44.989082,14.800272 
	C44.944530,15.869001 44.760986,16.743649 44.349396,17.867844 
	C44.121353,18.117392 43.868542,17.954897 43.763367,17.541161 
	C43.602890,16.475216 43.547581,15.823009 43.565075,14.985739 
	C43.637875,14.800677 43.673233,14.404522 43.791031,14.295179 
	C43.908825,14.185836 44.146935,13.969894 44.146935,13.969894 
z"/>
<path fill="#E3C045" opacity="1.000000" stroke="none" 
	d="
M38.087063,16.045637 
	C37.958218,15.766463 37.781761,15.523065 37.426933,15.240414 
	C37.145279,15.081927 36.994385,14.998467 36.646935,14.746965 
	C37.111412,14.546515 37.772453,14.514108 38.692001,14.779854 
	C38.662697,15.400551 38.374878,15.723094 38.087063,16.045637 
z"/>
<path fill="#E7B93A" opacity="1.000000" stroke="none" 
	d="
M34.937347,21.159260 
	C35.312675,21.132034 35.688007,21.104809 36.234146,21.026159 
	C36.603653,21.028734 36.802353,21.082735 37.260666,21.303295 
	C36.884399,21.523531 36.248520,21.577206 35.259094,21.491930 
	C34.905544,21.352980 34.937347,21.159260 34.937347,21.159260 
z"/>
<path fill="#E3C045" opacity="1.000000" stroke="none" 
	d="
M35.478237,15.803219 
	C35.546101,15.871025 35.442661,15.820272 35.469147,15.804823 
	C35.495632,15.789373 35.332150,15.906839 35.332150,15.906839 
	C35.332150,15.906839 35.410374,15.735412 35.478237,15.803219 
z"/>
<path fill="#5B756C" opacity="1.000000" stroke="none" 
	d="
M56.254139,19.021774 
	C56.417831,18.714403 56.585632,18.669340 57.100235,18.760267 
	C57.447037,18.896255 57.599869,19.359053 57.599869,19.359053 
	C57.599869,19.359053 57.273331,19.705187 57.109592,19.878046 
	C56.716652,19.795298 56.487446,19.539692 56.254139,19.021774 
z"/>
<path fill="#03539D" opacity="1.000000" stroke="none" 
	d="
M74.091698,16.973518 
	C75.450203,17.140820 76.826714,17.220446 78.163200,17.494955 
	C80.450699,17.964802 82.694420,18.898821 84.990082,19.024399 
	C89.459236,19.268866 94.035820,25.747541 92.490990,30.356985 
	C91.839890,32.299698 90.496567,34.010414 88.962204,35.848053 
	C88.347328,35.623730 88.170410,35.445065 87.914291,34.988365 
	C87.294861,33.435936 86.686897,32.228668 86.063271,30.707134 
	C85.620590,29.978735 85.193573,29.564606 84.593536,28.888088 
	C83.661652,27.638742 82.902771,26.651783 81.948364,25.400990 
	C79.649727,23.200710 77.546616,21.264263 75.536880,19.175873 
	C75.368561,18.936047 75.106857,18.848162 74.673096,18.664997 
	C74.292236,18.399961 74.141563,18.188744 74.063538,17.695599 
	C74.078056,17.455133 74.091698,16.973518 74.091698,16.973518 
z"/>
<path fill="#ECBD38" opacity="1.000000" stroke="none" 
	d="
M87.925758,35.333527 
	C88.170410,35.445065 88.347328,35.623730 88.621193,35.970932 
	C88.928520,36.846771 89.071159,37.621197 89.246292,38.872375 
	C89.177460,39.904251 89.076126,40.459373 88.684517,41.089844 
	C87.618111,41.783047 86.841988,42.400906 85.770927,43.024658 
	C85.280632,43.049847 85.085274,43.069149 84.889908,43.088448 
	C84.889908,43.088448 84.694412,42.642548 84.682343,42.171043 
	C84.586632,41.336342 84.364426,41.107914 84.003662,41.014256 
	C83.941841,40.841316 83.880013,40.668373 84.087654,40.013565 
	C84.498062,38.310322 84.639008,37.088943 84.740868,36.206268 
	C85.905113,35.887238 86.915436,35.610382 87.925758,35.333527 
z"/>
<path fill="#1F527A" opacity="1.000000" stroke="none" 
	d="
M63.032982,12.988994 
	C63.036911,12.809826 63.040844,12.630659 63.039642,12.181525 
	C63.826260,12.175325 64.618011,12.439092 65.721069,12.687136 
	C68.295151,13.843841 70.557930,15.016269 72.872269,16.644245 
	C72.923836,17.099792 72.632973,17.444391 72.323410,17.318451 
	C69.020226,15.791337 66.026604,14.390165 63.032982,12.988994 
z"/>
<path fill="#376570" opacity="1.000000" stroke="none" 
	d="
M88.974792,41.014496 
	C89.076126,40.459373 89.177460,39.904251 89.438538,39.113121 
	C90.385033,41.335831 91.171776,43.794552 91.908859,46.665833 
	C91.859200,47.078396 91.519859,47.007553 91.276199,46.696472 
	C90.758270,45.888729 90.484001,45.392071 90.085442,44.876995 
	C89.961143,44.858578 89.834167,45.075455 89.843124,44.692905 
	C89.696716,43.827885 89.541359,43.345413 89.435020,42.692738 
	C89.484047,42.522533 89.261024,42.247299 89.308578,42.026405 
	C89.355965,41.480640 89.228851,41.216969 88.974792,41.014496 
z"/>
<path fill="#1F527A" opacity="1.000000" stroke="none" 
	d="
M73.871742,16.921879 
	C74.091698,16.973518 74.078056,17.455133 73.810333,17.662785 
	C73.239403,17.728420 72.936188,17.586405 72.632973,17.444391 
	C72.632973,17.444391 72.923836,17.099792 73.069794,16.925697 
	C73.215759,16.751604 73.651787,16.870237 73.871742,16.921879 
z"/>
<path fill="#0253A5" opacity="1.000000" stroke="none" 
	d="
M42.993549,34.997604 
	C42.993549,34.997604 43.487869,34.999634 43.763840,35.365768 
	C45.805180,39.113380 47.570545,42.494858 49.335915,45.876335 
	C49.335915,45.876335 49.352474,45.940895 48.942879,46.099899 
	C47.289249,53.341526 46.045216,60.424145 44.801178,67.506760 
	C44.801178,67.506760 44.752953,67.760887 44.327370,67.674156 
	C43.264339,67.992989 42.626888,68.398552 41.989441,68.804115 
	C36.937012,69.685226 33.554237,67.792702 31.995533,62.214451 
	C31.951778,61.263985 31.796827,60.993313 31.494436,60.807041 
	C31.344820,56.811653 31.195202,52.816261 31.169703,48.088085 
	C30.865089,46.559628 30.436359,45.763962 29.749468,44.782104 
	C28.470055,45.115917 27.448805,45.635921 26.427555,46.155922 
	C26.344145,46.870003 26.260738,47.584084 26.080441,48.645966 
	C24.501318,50.918758 23.019085,52.843750 21.066727,54.530659 
	C20.782101,50.532234 20.967600,46.771885 21.153099,43.011539 
	C22.894156,40.085350 24.588427,37.129898 26.393581,34.243797 
	C27.499607,32.475475 28.775661,30.813503 30.233433,28.735985 
	C33.464676,32.521702 35.928127,36.673359 41.927734,35.139214 
	C42.496929,34.998688 42.993549,34.997604 42.993549,34.997604 
z"/>
<path fill="#0E5096" opacity="1.000000" stroke="none" 
	d="
M54.086384,58.389183 
	C55.149872,58.899109 56.551865,59.612133 57.070999,60.733776 
	C59.968929,66.995018 62.846973,67.937721 68.895355,64.366882 
	C69.297119,64.129692 69.861557,64.168053 70.726845,64.071030 
	C69.621719,69.310333 65.211288,69.752937 61.318840,68.733963 
	C58.882671,68.096230 56.908634,65.141006 55.095531,62.924400 
	C54.274590,61.920757 54.349022,60.184723 54.086384,58.389183 
z"/>
<path fill="#145598" opacity="1.000000" stroke="none" 
	d="
M49.541534,45.909771 
	C47.570545,42.494858 45.805180,39.113380 44.011005,35.366028 
	C43.987682,34.251522 43.993168,33.502888 43.999836,32.380104 
	C44.712212,31.999928 45.423409,31.993906 46.448166,32.344929 
	C47.474113,34.916317 47.623100,37.712109 49.097141,39.140404 
	C50.078316,40.091133 52.950562,39.090218 54.976398,38.962826 
	C54.872059,41.222454 54.767719,43.482082 54.368366,45.856995 
	C54.073353,45.972275 53.987930,46.175030 53.755047,45.786777 
	C52.400414,45.554932 51.278667,45.711342 50.156918,45.867752 
	C50.156918,45.867752 49.747158,45.943207 49.541534,45.909771 
z"/>
<path fill="#09519B" opacity="1.000000" stroke="none" 
	d="
M45.072300,67.307587 
	C46.045216,60.424145 47.289249,53.341526 48.915062,46.118256 
	C49.295044,50.556499 49.744633,55.198345 49.118217,59.690136 
	C48.755951,62.287849 46.659431,64.643707 45.072300,67.307587 
z"/>
<path fill="#E8FEFF" opacity="1.000000" stroke="none" 
	d="
M77.876648,46.125565 
	C77.905708,47.092129 77.843895,48.162125 77.817772,49.912491 
	C77.959869,50.753376 78.066284,50.913895 78.172691,51.074417 
	C78.172691,51.074417 77.788872,51.201538 77.667404,51.040009 
	C77.024994,49.513577 76.504059,48.148674 76.236450,46.437355 
	C76.833046,46.113430 77.176331,46.135921 77.519608,46.158417 
	C77.519608,46.158417 77.785767,46.228996 77.876648,46.125565 
z"/>
<path fill="#E8FEFF" opacity="1.000000" stroke="none" 
	d="
M77.179092,59.126629 
	C77.446037,60.154354 77.459114,61.331066 77.206512,62.747181 
	C76.935623,61.749596 76.930420,60.512604 77.179092,59.126629 
z"/>
<path fill="#BBDFF2" opacity="1.000000" stroke="none" 
	d="
M26.609993,46.269150 
	C27.448805,45.635921 28.470055,45.115917 29.719799,45.076145 
	C29.932653,45.752766 29.917017,45.949154 29.901381,46.145538 
	C29.476795,46.111122 29.052208,46.076710 28.101641,46.123390 
	C27.575659,46.204487 27.215740,46.454678 27.215740,46.454678 
	C27.215740,46.454678 26.792433,46.382374 26.609993,46.269150 
z"/>
<path fill="#C0DBE9" opacity="1.000000" stroke="none" 
	d="
M50.448044,45.948273 
	C51.278667,45.711342 52.400414,45.554932 53.652054,45.748131 
	C52.767681,46.074753 51.753426,46.051773 50.448044,45.948273 
z"/>
<path fill="#CDE5FD" opacity="1.000000" stroke="none" 
	d="
M73.158684,49.726315 
	C72.798531,48.890396 72.687683,47.811409 73.033737,46.379234 
	C73.684708,46.039368 73.878777,46.052689 74.072838,46.066010 
	C73.851227,47.205090 73.629608,48.344170 73.158684,49.726315 
z"/>
<path fill="#09519B" opacity="1.000000" stroke="none" 
	d="
M42.282516,68.863541 
	C42.626888,68.398552 43.264339,67.992989 44.200035,67.696793 
	C43.857388,68.178429 43.216492,68.550705 42.282516,68.863541 
z"/>
<path fill="#C2E2EB" opacity="1.000000" stroke="none" 
	d="
M37.743019,73.532394 
	C37.100025,73.698799 36.162228,73.656250 34.926155,73.415016 
	C35.567989,73.252037 36.508106,73.287735 37.743019,73.532394 
z"/>
<path fill="#6791C3" opacity="1.000000" stroke="none" 
	d="
M72.759544,57.734161 
	C72.506882,57.197544 72.403687,56.272400 72.484451,55.118660 
	C72.748627,55.708588 72.828819,56.527111 72.759544,57.734161 
z"/>
<path fill="#B0CEEC" opacity="1.000000" stroke="none" 
	d="
M29.975269,46.412033 
	C29.917017,45.949154 29.932653,45.752766 29.977961,45.262337 
	C30.436359,45.763962 30.865089,46.559628 31.106544,47.687988 
	C30.629234,47.573296 30.339197,47.125912 29.975269,46.412033 
z"/>
<path fill="#B5D9F0" opacity="1.000000" stroke="none" 
	d="
M77.527641,45.862366 
	C77.176331,46.135921 76.833046,46.113430 76.230392,46.080353 
	C75.971008,46.069763 75.911652,45.657864 75.914124,45.449791 
	C76.456284,45.349922 76.995979,45.458118 77.527641,45.862366 
z"/>
<path fill="#6791C3" opacity="1.000000" stroke="none" 
	d="
M72.763809,51.810711 
	C72.555672,51.790043 72.439682,51.454411 72.481964,50.997318 
	C72.712151,51.082489 72.784050,51.289116 72.763809,51.810711 
z"/>
<path fill="#EDFEFF" opacity="1.000000" stroke="none" 
	d="
M27.330673,46.462330 
	C27.215740,46.454678 27.575659,46.204487 27.782150,46.132156 
	C27.866943,46.280422 27.685930,46.417141 27.330673,46.462330 
z"/>
<path fill="#B5D9F0" opacity="1.000000" stroke="none" 
	d="
M74.102341,45.874870 
	C73.878777,46.052689 73.684708,46.039368 73.199814,45.999889 
	C73.121719,45.714069 73.334442,45.454407 73.820084,45.246811 
	C74.092995,45.298870 74.131851,45.683727 74.102341,45.874870 
z"/>
<path fill="#BEE1EB" opacity="1.000000" stroke="none" 
	d="
M66.906624,73.397339 
	C66.864250,73.577881 66.687447,73.658798 66.220367,73.709442 
	C66.210793,73.552010 66.491493,73.424866 66.906624,73.397339 
z"/>
<path fill="#0E5096" opacity="1.000000" stroke="none" 
	d="
M71.298317,64.025780 
	C71.152306,63.840652 71.288910,63.587414 71.608719,63.193489 
	C71.681541,63.332821 71.611214,63.634445 71.298317,64.025780 
z"/>
<path fill="#8CA9CE" opacity="1.000000" stroke="none" 
	d="
M26.596981,63.015984 
	C26.340717,62.926357 26.230698,62.609875 26.243706,62.062630 
	C26.492231,62.150955 26.617729,62.470043 26.596981,63.015984 
z"/>
<path fill="#79A1C7" opacity="1.000000" stroke="none" 
	d="
M31.382929,61.045792 
	C31.796827,60.993313 31.951778,61.263985 31.922380,61.858513 
	C31.680788,61.826824 31.476105,61.555683 31.382929,61.045792 
z"/>
<path fill="#EBC12E" opacity="1.000000" stroke="none" 
	d="
M89.385994,42.862942 
	C89.541359,43.345413 89.696716,43.827885 89.634880,45.024597 
	C89.271523,48.488644 89.125366,51.238445 88.979210,53.988247 
	C88.295425,53.680206 87.611633,53.372169 86.571472,52.940315 
	C86.026787,52.385460 85.838470,51.954418 85.709740,50.939220 
	C85.737778,48.664570 85.706223,46.974083 85.809387,44.920883 
	C85.984688,44.045036 86.025276,43.531902 86.065857,43.018768 
	C86.841988,42.400906 87.618111,41.783047 88.684517,41.089844 
	C89.228851,41.216969 89.355965,41.480640 89.284569,42.106300 
	C89.203255,42.585312 89.260918,42.737267 89.385994,42.862942 
z"/>
<path fill="#DBC153" opacity="1.000000" stroke="none" 
	d="
M88.992142,54.339405 
	C89.125366,51.238445 89.271523,48.488644 89.625923,45.407150 
	C89.834167,45.075455 89.961143,44.858578 90.002090,45.254112 
	C90.069595,46.417313 90.096161,47.184975 90.092056,48.409828 
	C89.952415,51.928085 89.843430,54.989151 89.734451,58.050217 
	C89.491325,56.930332 89.248192,55.810448 88.992142,54.339405 
z"/>
<path fill="#AAA863" opacity="1.000000" stroke="none" 
	d="
M89.780548,58.276405 
	C89.843430,54.989151 89.952415,51.928085 90.277870,48.433205 
	C90.494347,47.999390 90.867775,48.048695 90.867783,48.048695 
	C90.870560,51.350838 90.873337,54.652985 90.616974,58.434746 
	C90.357819,58.914368 89.935287,58.951302 89.935287,58.951302 
	C89.935287,58.951302 89.826653,58.502590 89.780548,58.276405 
z"/>
<path fill="#295E7A" opacity="1.000000" stroke="none" 
	d="
M85.047882,58.762730 
	C84.788467,58.022251 84.810402,57.066029 85.073753,55.992012 
	C85.319855,56.765137 85.324547,57.656063 85.047882,58.762730 
z"/>
<path fill="#375A63" opacity="1.000000" stroke="none" 
	d="
M83.256943,65.717499 
	C83.230125,64.454422 83.424881,62.943493 83.838150,61.474579 
	C84.030991,61.963688 84.005318,62.410782 83.979645,62.857872 
	C83.812607,63.728458 83.645561,64.599045 83.256943,65.717499 
z"/>
<path fill="#295E7A" opacity="1.000000" stroke="none" 
	d="
M84.203194,62.691277 
	C84.005318,62.410782 84.030991,61.963688 84.084366,61.178864 
	C84.112068,60.841133 84.327354,60.819798 84.423538,60.869400 
	C84.488724,61.454227 84.457726,61.989456 84.203194,62.691277 
z"/>
<path fill="#0154A5" opacity="1.000000" stroke="none" 
	d="
M88.766922,67.573975 
	C88.794693,67.604424 88.857674,67.501579 88.869034,67.473854 
	C88.880402,67.446129 88.739151,67.543533 88.766922,67.573975 
z"/>
<path fill="#858C66" opacity="1.000000" stroke="none" 
	d="
M89.948456,59.157017 
	C89.935287,58.951302 90.357819,58.914368 90.566360,58.879715 
	C90.726631,59.065681 90.678352,59.286301 90.461060,59.802193 
	C90.088097,59.894760 89.977966,59.649849 89.948456,59.157017 
z"/>
<path fill="#E3BD43" opacity="1.000000" stroke="none" 
	d="
M87.914291,34.988369 
	C86.915436,35.610382 85.905113,35.887238 84.740868,36.206268 
	C84.639008,37.088943 84.498062,38.310322 84.147079,39.744560 
	C83.147385,38.438110 82.357712,36.918797 81.358772,35.150085 
	C80.721588,33.999943 80.293671,33.099205 79.677872,31.761900 
	C79.489983,31.325333 79.432465,30.950411 79.787384,30.895435 
	C80.809502,29.115248 81.476700,27.390036 82.143898,25.664824 
	C82.902771,26.651783 83.661652,27.638742 84.620262,29.195030 
	C85.239639,30.183372 85.659286,30.602388 86.078934,31.021400 
	C86.686897,32.228668 87.294861,33.435936 87.914291,34.988369 
z"/>
<path fill="#295E7A" opacity="1.000000" stroke="none" 
	d="
M85.674675,45.283592 
	C85.706223,46.974083 85.737778,48.664570 85.578377,50.737354 
	C85.110153,49.421501 84.832886,47.723351 84.943420,45.741650 
	C85.331223,45.458096 85.674675,45.283592 85.674675,45.283592 
z"/>
<path fill="#8D9466" opacity="1.000000" stroke="none" 
	d="
M85.809387,44.920883 
	C85.674675,45.283592 85.331223,45.458096 85.140594,45.485771 
	C84.872948,44.973087 84.795937,44.432728 84.804413,43.490410 
	C85.085274,43.069149 85.280632,43.049847 85.770927,43.024658 
	C86.025276,43.531902 85.984688,44.045036 85.809387,44.920883 
z"/>
<path fill="#5889B0" opacity="1.000000" stroke="none" 
	d="
M78.334778,50.965729 
	C78.066284,50.913895 77.959869,50.753376 77.901566,50.307999 
	C78.132065,50.301105 78.314461,50.579071 78.334778,50.965729 
z"/>
<path fill="#6F7A76" opacity="1.000000" stroke="none" 
	d="
M84.008629,41.242332 
	C84.364426,41.107914 84.586632,41.336342 84.603729,41.940651 
	C84.236870,42.037216 84.062340,41.800102 84.008629,41.242332 
z"/>
<path fill="#CEB963" opacity="1.000000" stroke="none" 
	d="
M19.951273,39.051880 
	C19.881355,39.761028 19.835814,40.336887 19.545460,41.422050 
	C19.120319,41.965214 18.939989,41.999073 18.759661,42.032928 
	C18.224279,41.262917 17.688900,40.492905 17.147848,39.418922 
	C17.838749,39.021263 18.535320,38.927578 19.577660,38.743275 
	C19.923426,38.652657 19.975649,38.918587 19.951273,39.051880 
z"/>
<path fill="#F6C01F" opacity="1.000000" stroke="none" 
	d="
M34.866753,20.822205 
	C34.937347,21.159260 34.905544,21.352980 34.936928,21.445946 
	C34.613026,21.858307 34.257744,22.177702 33.549515,22.584267 
	C32.856770,21.712898 32.516979,20.754354 32.127937,19.420294 
	C32.984505,19.524899 33.890327,20.005024 34.866753,20.822205 
z"/>
<path fill="#537058" opacity="1.000000" stroke="none" 
	d="
M32.483902,23.757427 
	C32.425175,24.148258 32.068310,24.558550 31.427311,25.034084 
	C31.490707,24.658516 31.838240,24.217705 32.483902,23.757427 
z"/>
<path fill="#537058" opacity="1.000000" stroke="none" 
	d="
M33.800476,22.926682 
	C33.876759,23.157570 33.547821,23.524439 33.025787,23.798820 
	C33.020210,23.491776 33.207729,23.277218 33.800476,22.926682 
z"/>
<path fill="#3E5A5F" opacity="1.000000" stroke="none" 
	d="
M25.705795,30.254864 
	C25.743134,30.682499 25.499912,31.172848 24.979996,31.740749 
	C24.943943,31.318064 25.184591,30.817820 25.705795,30.254864 
z"/>
<path fill="#3E5A5F" opacity="1.000000" stroke="none" 
	d="
M24.440115,31.869825 
	C24.519913,32.334454 24.308956,32.899124 23.776096,33.512997 
	C23.685915,33.031422 23.917639,32.500645 24.440115,31.869825 
z"/>
<path fill="#3E5A5F" opacity="1.000000" stroke="none" 
	d="
M22.470001,34.888046 
	C22.788279,35.060310 22.753250,35.367870 22.377682,35.821026 
	C22.104845,35.660686 22.131365,35.346264 22.470001,34.888046 
z"/>
<path fill="#3E5A5F" opacity="1.000000" stroke="none" 
	d="
M23.246082,33.730431 
	C23.365919,33.935604 23.268688,34.254841 22.914268,34.646301 
	C22.630709,34.363228 22.754688,34.071884 23.246082,33.730431 
z"/>
<path fill="#D0B957" opacity="1.000000" stroke="none" 
	d="
M40.197315,84.474083 
	C40.603741,84.444260 41.010170,84.414444 41.706894,84.286057 
	C42.793102,84.215866 43.589012,84.244240 44.796635,84.436829 
	C45.459030,84.773087 45.735317,84.877197 46.037201,84.913383 
	C46.037201,84.913383 46.131084,85.161530 46.080086,85.283966 
	C43.989437,85.670258 41.949795,85.934105 39.248650,86.126869 
	C38.409382,86.011955 38.231609,85.968140 38.053841,85.924332 
	C38.158497,85.702835 38.286018,85.495399 38.830727,85.105530 
	C39.549137,84.764046 39.873226,84.619064 40.197315,84.474083 
z"/>
<path fill="#EEBF2C" opacity="1.000000" stroke="none" 
	d="
M37.796371,86.005005 
	C38.231609,85.968140 38.409382,86.011955 38.848152,86.144936 
	C38.916180,86.722359 38.723202,87.210632 38.094601,87.888763 
	C37.474384,88.079506 37.289791,88.080383 37.105202,88.081268 
	C37.249767,87.416077 37.394333,86.750877 37.796371,86.005005 
z"/>
<path fill="#EFBD2F" opacity="1.000000" stroke="none" 
	d="
M36.992420,88.312241 
	C37.289791,88.080383 37.474384,88.079506 37.937397,88.103119 
	C38.188416,88.348328 38.171955,88.569878 38.134266,88.956879 
	C37.851021,89.156563 37.599945,89.191597 36.989052,89.101448 
	C36.629238,88.976257 36.690788,89.034134 36.651699,89.008316 
	C36.701618,88.836067 36.790630,88.689644 36.992420,88.312241 
z"/>
<path fill="#BFB051" opacity="1.000000" stroke="none" 
	d="
M25.167351,75.936081 
	C25.057030,75.743523 25.216616,75.471626 25.672199,75.161095 
	C25.818649,75.396904 25.641670,75.641670 25.167351,75.936081 
z"/>
<path fill="#818F65" opacity="1.000000" stroke="none" 
	d="
M39.842453,84.370422 
	C39.873226,84.619064 39.549137,84.764046 38.962605,84.978851 
	C38.700161,85.048683 38.697002,84.662369 38.722672,84.471420 
	C38.994755,84.275909 39.241173,84.271332 39.842453,84.370422 
z"/>
<path fill="#1E5875" opacity="1.000000" stroke="none" 
	d="
M18.745983,42.448677 
	C18.939989,41.999073 19.120319,41.965214 19.565704,41.854774 
	C20.138481,42.037270 20.446203,42.296356 20.953510,42.783489 
	C20.967600,46.771885 20.782101,50.532234 20.723972,54.662304 
	C21.136055,58.377811 21.420765,61.723598 21.545319,65.512100 
	C21.030416,66.027145 20.719107,65.941544 20.218010,65.608467 
	C19.324139,62.947510 18.663492,60.376095 17.924316,57.400261 
	C18.141293,52.285366 18.436798,47.574894 18.745983,42.448677 
z"/>
<path fill="#F1BD2E" opacity="1.000000" stroke="none" 
	d="
M23.032291,71.459732 
	C22.968264,71.489250 23.172840,71.534286 23.199707,71.560730 
	C23.226572,71.587181 23.096319,71.430206 23.032291,71.459732 
z"/>
<path fill="#E5C359" opacity="1.000000" stroke="none" 
	d="
M15.006754,56.536381 
	C14.900789,57.514378 14.787299,58.036636 14.438909,58.348049 
	C13.963589,54.078098 13.723169,50.018993 13.427095,45.731567 
	C13.371442,45.503242 13.109985,45.112659 13.109985,45.112659 
	C13.259453,44.703793 13.408920,44.294926 13.791589,43.657585 
	C14.349602,47.646286 14.674415,51.863464 15.006754,56.536381 
z"/>
<path fill="#57695B" opacity="1.000000" stroke="none" 
	d="
M12.809351,45.389587 
	C13.109985,45.112659 13.371442,45.503242 13.283143,46.181488 
	C13.383768,51.032341 13.572692,55.204948 13.761615,59.377556 
	C13.761615,59.377556 13.575327,59.702614 13.403390,59.776546 
	C12.990541,55.122490 12.749628,50.394505 12.809351,45.389587 
z"/>
<path fill="#B0A66C" opacity="1.000000" stroke="none" 
	d="
M13.935285,59.302132 
	C13.572692,55.204948 13.383768,51.032341 13.338797,46.409813 
	C13.723169,50.018993 13.963589,54.078098 14.321292,58.588753 
	C14.438576,59.040298 14.108954,59.226707 13.935285,59.302132 
z"/>
<path fill="#CDB966" opacity="1.000000" stroke="none" 
	d="
M46.184551,91.365433 
	C46.257450,91.505013 46.316246,91.957802 46.382183,92.176300 
	C45.129589,92.401245 43.811062,92.407700 42.271210,91.933281 
	C42.049892,91.452408 42.022842,90.992996 42.404388,90.999008 
	C43.549191,90.978004 44.312454,90.950989 45.277821,90.861473 
	C45.479927,90.798973 45.872894,90.642159 45.872894,90.642159 
	C45.936665,90.843201 46.016251,91.037766 46.184551,91.365433 
z"/>
<path fill="#AEA469" opacity="1.000000" stroke="none" 
	d="
M42.022842,90.992996 
	C42.022842,90.992996 42.049892,91.452408 42.045738,91.682495 
	C41.434669,91.613777 40.827751,91.314972 40.106087,90.683151 
	C40.051865,90.016975 40.247475,89.814034 41.021404,89.812454 
	C41.635456,89.917160 41.806278,89.950745 41.977100,89.984329 
	C41.977100,89.984329 41.935818,90.044373 41.942917,90.300659 
	C41.950012,90.556938 42.022842,90.992996 42.022842,90.992996 
z"/>
<path fill="#B8AC65" opacity="1.000000" stroke="none" 
	d="
M62.918671,89.517670 
	C62.603989,89.656158 62.102676,89.652573 61.276649,89.449051 
	C61.545303,89.291283 62.138672,89.333443 62.918671,89.517670 
z"/>
<path fill="#D6BA58" opacity="1.000000" stroke="none" 
	d="
M61.444035,86.424911 
	C61.490963,86.395195 61.397106,86.454636 61.444035,86.424911 
z"/>
<path fill="#D6B851" opacity="1.000000" stroke="none" 
	d="
M46.861137,86.291412 
	C47.244682,87.160263 47.551147,88.153465 47.593605,89.562256 
	C47.329601,89.977852 47.011410,90.008987 47.011410,90.008987 
	C47.011410,90.008987 46.902588,89.900467 46.903091,89.499367 
	C46.839005,88.399147 46.774418,87.700035 46.709831,87.000916 
	C46.697891,86.801186 46.722633,86.606133 46.861137,86.291412 
z"/>
<path fill="#F8C22F" opacity="1.000000" stroke="none" 
	d="
M46.565933,87.257309 
	C46.774418,87.700035 46.839005,88.399147 46.848717,89.445068 
	C46.793846,89.791870 46.344799,89.832863 46.118877,89.817764 
	C46.069317,89.039673 46.245678,88.276688 46.565933,87.257309 
z"/>
<path fill="#D6B851" opacity="1.000000" stroke="none" 
	d="
M42.404388,90.999008 
	C42.022842,90.992996 41.950012,90.556938 41.941086,90.337044 
	C42.690147,90.090607 43.448135,90.064064 44.609009,90.251266 
	C45.011894,90.465019 45.075714,90.923965 45.075714,90.923965 
	C44.312454,90.950989 43.549191,90.978004 42.404388,90.999008 
z"/>
<path fill="#EFBD2F" opacity="1.000000" stroke="none" 
	d="
M41.900803,89.855850 
	C41.806278,89.950745 41.635456,89.917160 41.236679,89.756271 
	C41.305431,89.483719 41.577358,89.516518 41.900803,89.855850 
z"/>
<path fill="#F8C22F" opacity="1.000000" stroke="none" 
	d="
M45.277821,90.861465 
	C45.075714,90.923965 45.011894,90.465019 44.987350,90.234680 
	C44.962807,90.004349 45.376930,89.937592 45.583668,89.914047 
	C45.790405,89.890495 45.848194,90.266907 45.860542,90.454529 
	C45.872894,90.642159 45.479927,90.798973 45.277821,90.861465 
z"/>
<path fill="#A69A5E" opacity="1.000000" stroke="none" 
	d="
M64.337128,84.979996 
	C64.769882,84.628922 65.526733,84.294647 66.601700,83.949661 
	C66.166954,84.291573 65.414085,84.644180 64.337128,84.979996 
z"/>
<path fill="#91A16D" opacity="1.000000" stroke="none" 
	d="
M90.945297,47.773567 
	C90.867775,48.048695 90.494347,47.999390 90.308533,47.976013 
	C90.096161,47.184975 90.069595,46.417313 90.126389,45.272530 
	C90.484001,45.392071 90.758270,45.888729 91.105415,46.666843 
	C91.126472,47.131676 91.074654,47.315056 90.945297,47.773567 
z"/>
<path fill="#9D9F6D" opacity="1.000000" stroke="none" 
	d="
M45.893253,84.731827 
	C45.735317,84.877197 45.459030,84.773087 45.041630,84.453247 
	C45.200554,84.265076 45.492016,84.346680 45.893253,84.731827 
z"/>
<path fill="#CDB966" opacity="1.000000" stroke="none" 
	d="
M47.034416,90.114578 
	C47.011410,90.008987 47.329601,89.977852 47.487564,89.962624 
	C47.645531,89.947395 47.478409,90.343971 47.318245,90.487839 
	C47.158077,90.631699 47.057419,90.220169 47.034416,90.114578 
z"/>
<path fill="#F3FDFD" opacity="1.000000" stroke="none" 
	d="
M55.062176,38.685867 
	C52.950562,39.090218 50.078316,40.091133 49.097141,39.140404 
	C47.623100,37.712109 47.474113,34.916317 46.803795,32.344463 
	C46.845863,31.986956 47.004154,32.084274 47.395668,32.061672 
	C48.528572,31.782978 49.269962,31.526884 50.031548,31.155790 
	C50.051743,31.040789 49.992546,30.814896 50.374077,30.949768 
	C51.810341,31.009794 52.865078,30.934946 54.271919,30.917583 
	C55.086342,31.080244 55.548664,31.185417 56.067604,31.372757 
	C56.262947,31.602936 56.430790,31.703632 56.756645,31.628147 
	C56.885540,31.499283 56.992313,31.150751 56.992313,31.150751 
	C56.994671,32.854134 56.997025,34.557514 56.941185,36.610321 
	C56.304646,37.442802 55.726299,37.925854 55.062176,38.685867 
z"/>
<path fill="#0254A6" opacity="1.000000" stroke="none" 
	d="
M42.883915,34.898476 
	C42.993549,34.997604 42.496929,34.998688 42.248627,34.998886 
	C42.217888,34.737816 42.475876,34.671234 42.883915,34.898476 
z"/>
<path fill="#79A0CB" opacity="1.000000" stroke="none" 
	d="
M53.919815,30.860100 
	C52.865078,30.934946 51.810341,31.009794 50.378098,30.771332 
	C50.000587,30.458023 49.973274,30.101549 49.973274,30.101549 
	C50.143803,30.054546 50.314327,30.007542 50.743690,29.902050 
	C51.759838,29.905722 52.517151,29.967880 53.619286,30.254719 
	C53.964111,30.479401 53.919815,30.860100 53.919815,30.860100 
z"/>
<path fill="#99C5EA" opacity="1.000000" stroke="none" 
	d="
M54.271919,30.917583 
	C53.919815,30.860100 53.964111,30.479401 53.999050,30.291039 
	C54.929565,30.236254 55.825142,30.369829 56.856514,30.827080 
	C56.992313,31.150751 56.885540,31.499283 56.628281,31.477875 
	C56.371021,31.456465 56.010986,31.290592 56.010986,31.290592 
	C55.548664,31.185417 55.086342,31.080244 54.271919,30.917583 
z"/>
<path fill="#F5BD2C" opacity="1.000000" stroke="none" 
	d="
M38.177036,16.371880 
	C38.374878,15.723094 38.662697,15.400551 39.013981,14.868715 
	C39.077446,14.659423 39.135834,14.350150 39.400509,14.340865 
	C39.978836,14.363091 40.175114,14.226124 40.254017,13.920681 
	C40.254017,13.920681 40.453163,13.928704 40.661701,14.085171 
	C41.127769,14.403595 41.406139,14.512074 41.693897,14.670128 
	C41.682449,14.773184 41.745358,14.975280 41.760689,15.227240 
	C41.804356,15.645081 41.832691,15.810962 41.690784,16.220676 
	C41.394341,17.040571 41.268135,17.616632 41.141930,18.192694 
	C41.141930,18.192694 41.179405,18.237133 41.175846,18.265755 
	C40.203861,17.762293 39.235435,17.230207 38.177036,16.371880 
z"/>
<path fill="#6A8E8A" opacity="1.000000" stroke="none" 
	d="
M41.705345,14.567074 
	C41.406139,14.512074 41.127769,14.403595 40.754597,14.049105 
	C41.606796,13.726237 42.574642,13.595904 43.844711,13.717733 
	C44.146935,13.969894 43.908825,14.185836 43.459122,14.248933 
	C42.574730,14.397044 42.140038,14.482059 41.705345,14.567074 
z"/>
<path fill="#6A8E8A" opacity="1.000000" stroke="none" 
	d="
M40.090958,13.795015 
	C40.175114,14.226124 39.978836,14.363091 39.505150,14.223328 
	C39.394730,13.777411 39.588993,13.628837 40.090958,13.795015 
z"/>
<path fill="#5D746A" opacity="1.000000" stroke="none" 
	d="
M57.854092,11.223150 
	C58.122147,11.460710 58.089607,11.636325 57.793880,12.111109 
	C57.266197,12.526278 56.993908,12.619548 56.527225,12.510917 
	C56.216019,12.212517 56.091408,12.093287 55.966801,11.974058 
	C56.495701,11.703108 57.024597,11.432157 57.854092,11.223150 
z"/>
<path fill="#5D746A" opacity="1.000000" stroke="none" 
	d="
M55.968201,13.905420 
	C55.848991,13.915699 55.487335,13.962860 55.307236,13.990211 
	C55.263248,13.467193 55.399357,12.916824 55.751137,12.170257 
	C56.091408,12.093287 56.216019,12.212517 56.455780,12.726806 
	C56.429024,13.392718 56.341885,13.680169 56.309513,13.984219 
	C56.309513,13.984219 56.087410,13.895142 55.968201,13.905420 
z"/>
<path fill="#ECBD38" opacity="1.000000" stroke="none" 
	d="
M56.457047,14.278923 
	C56.341885,13.680169 56.429024,13.392718 56.642380,12.905976 
	C56.993908,12.619548 57.266197,12.526278 57.740356,12.373617 
	C59.395576,12.564355 60.841141,12.791755 62.659843,13.004074 
	C66.026604,14.390165 69.020226,15.791337 72.323410,17.318451 
	C72.936188,17.586405 73.239403,17.728420 73.795822,17.903248 
	C74.141563,18.188744 74.292236,18.399961 74.766556,18.866543 
	C75.032066,19.163370 75.443504,19.327818 75.443504,19.327816 
	C77.546616,21.264263 79.649727,23.200710 81.948364,25.400990 
	C81.476700,27.390036 80.809502,29.115248 79.561813,30.799007 
	C78.981316,30.757557 78.502579,30.650816 78.502579,30.650816 
	C78.502579,30.650816 78.477730,30.580736 78.351105,30.302422 
	C77.790833,29.659466 77.357178,29.294823 76.923523,28.930180 
	C74.502960,27.027048 72.082397,25.123917 69.336105,23.143703 
	C67.912918,22.198513 66.815460,21.330404 65.406830,20.434845 
	C63.992931,20.295151 62.890209,20.182903 61.371056,20.138655 
	C60.038685,20.041348 59.122753,19.876043 57.903343,19.534895 
	C57.599869,19.359053 57.447037,18.896255 57.346420,18.674767 
	C57.032066,17.160059 56.818325,15.866844 56.457047,14.278923 
z"/>
<path fill="#4E685E" opacity="1.000000" stroke="none" 
	d="
M76.979713,29.239784 
	C77.357178,29.294823 77.790833,29.659466 78.313965,30.300980 
	C77.947594,30.235031 77.491745,29.892210 76.979713,29.239784 
z"/>
<path fill="#4E685E" opacity="1.000000" stroke="none" 
	d="
M78.360748,30.954247 
	C78.502579,30.650816 78.981316,30.757557 79.206894,30.853985 
	C79.432465,30.950411 79.489983,31.325333 79.484192,31.515488 
	C79.249077,31.757820 79.019760,31.809998 78.439148,31.888393 
	C78.131538,31.695631 78.175224,31.476652 78.360748,30.954247 
z"/>
<path fill="#91C4EA" opacity="1.000000" stroke="none" 
	d="
M49.636887,30.054033 
	C49.973274,30.101549 50.000587,30.458023 49.996567,30.636459 
	C49.992546,30.814896 50.051743,31.040789 49.690239,31.056133 
	C48.618889,31.078129 47.909042,31.084782 47.199200,31.091434 
	C47.899632,30.729795 48.600067,30.368156 49.636887,30.054033 
z"/>
<path fill="#D2F3FD" opacity="1.000000" stroke="none" 
	d="
M47.135841,31.338411 
	C47.909042,31.084782 48.618889,31.078129 49.670044,31.171135 
	C49.269962,31.526884 48.528572,31.782978 47.488564,32.060349 
	C47.150795,31.916212 47.111641,31.750799 47.135841,31.338411 
z"/>
<path fill="#CDBD69" opacity="1.000000" stroke="none" 
	d="
M41.861023,15.976842 
	C41.832691,15.810962 41.804356,15.645081 42.058029,15.236038 
	C42.724117,15.052186 43.108196,15.111493 43.492275,15.170801 
	C43.547581,15.823009 43.602890,16.475216 43.638817,17.457102 
	C43.234383,17.938438 42.849327,18.090094 42.188896,17.876274 
	C41.896019,16.999479 41.878521,16.488161 41.861023,15.976842 
z"/>
<path fill="#E3C045" opacity="1.000000" stroke="none" 
	d="
M41.690784,16.220676 
	C41.878521,16.488161 41.896019,16.999479 41.878540,17.897736 
	C41.843567,18.284674 41.476215,18.359112 41.309074,18.275902 
	C41.268135,17.616632 41.394341,17.040571 41.690784,16.220676 
z"/>
<path fill="#959956" opacity="1.000000" stroke="none" 
	d="
M43.565075,14.985739 
	C43.108196,15.111493 42.724117,15.052186 42.042698,14.984079 
	C41.745358,14.975280 41.682449,14.773184 41.693897,14.670129 
	C42.140038,14.482059 42.574730,14.397044 43.341328,14.358276 
	C43.673233,14.404522 43.637875,14.800677 43.565075,14.985739 
z"/>
<path fill="#73775D" opacity="1.000000" stroke="none" 
	d="
M86.063271,30.707134 
	C85.659286,30.602388 85.239639,30.183372 84.793274,29.457417 
	C85.193573,29.564606 85.620590,29.978735 86.063271,30.707134 
z"/>
<path fill="#677A5D" opacity="1.000000" stroke="none" 
	d="
M75.536880,19.175875 
	C75.443504,19.327818 75.032066,19.163370 74.938614,18.961823 
	C75.106857,18.848162 75.368561,18.936047 75.536880,19.175875 
z"/>
<path fill="#DBC153" opacity="1.000000" stroke="none" 
	d="
M89.435020,42.692738 
	C89.260918,42.737267 89.203255,42.585312 89.237015,42.327194 
	C89.261024,42.247299 89.484047,42.522533 89.435020,42.692738 
z"/>
<path fill="#DFF6FE" opacity="1.000000" stroke="none" 
	d="
M56.067604,31.372757 
	C56.010986,31.290592 56.371021,31.456465 56.499390,31.606737 
	C56.430790,31.703632 56.262947,31.602936 56.067604,31.372757 
z"/>
</svg>